<svg width="341" height="340" viewBox="0 0 341 340" fill="none" xmlns="http://www.w3.org/2000/svg">
<path d="M80.6193 129.234L81.9657 129.012H82.636C85.2659 129.012 88.7322 130.963 92.9491 134.809C94.9087 138.676 95.9069 142.956 95.8596 147.288C95.8596 152.861 94.5227 159.77 91.849 168.017L89.6088 170.471C89.5926 171.816 89.1954 173.129 88.4629 174.26C92.9949 175.372 96.1232 177.215 97.8592 179.834C100.195 181.042 102.195 182.806 103.68 184.97C105.021 187.144 105.691 190.316 105.691 194.556V195.001C105.691 198.675 104.964 201.277 103.457 202.801C103.457 205.757 100.993 209.266 96.0716 213.277L91.5912 214.167C91.5912 214.738 90.4453 215.308 88.0103 215.953C87.6207 215.953 86.5607 215.559 84.882 214.812C81.0203 215.71 78.3332 216.157 76.8207 216.153C73.2398 215.982 71.4522 215.148 71.4522 213.699C69.6588 211.582 68.7651 205.174 68.7651 194.533C67.8564 187.881 67.3341 181.183 67.2009 174.471C66.5601 171.471 66.2584 168.408 66.3014 165.341C66.5821 162.614 66.8056 157.821 66.9775 150.854C66.6967 149.074 66.4733 147.122 66.3014 145.062C66.3014 144.172 66.5248 141.439 66.9775 136.812L66.7483 133.245C67.2487 129.681 69.0381 127.899 72.1168 127.899C73.0907 127.885 74.0627 127.811 75.0273 127.677L80.6193 129.234ZM82.4126 138.82L84.2002 155.984H84.4236C85.0589 153.049 85.4423 150.065 85.5695 147.065V146.843C85.5695 142.329 84.5039 139.545 82.4355 138.375L82.4126 138.82ZM86.6639 184.291C86.5585 184.73 86.4839 185.176 86.4404 185.626C87.1782 191.169 87.5515 196.753 87.5577 202.344V202.567H87.7811C90.1875 199.143 91.362 196.216 91.362 193.649C91.362 190.978 89.8552 187.914 86.8873 184.519V184.296L86.6639 184.291Z" fill="white"/>
<path d="M135.788 127.562C138.418 130.13 140.32 135.477 141.609 143.613C141.776 146.232 141.833 147.79 141.833 148.292C140.658 159.881 139.593 165.678 138.699 165.678C138.699 166.237 137.58 168.021 135.341 171.03C133.585 172.383 131.939 173.873 130.42 175.487L130.196 175.932C134.058 180.331 136.459 184.291 137.358 187.743C137.358 188.69 138.475 191.252 140.716 195.32C140.716 195.891 142.114 200.285 144.967 208.473C145.264 209.714 145.413 210.985 145.414 212.261V212.957C145.414 215.023 144.686 216.244 143.174 216.746C141.564 217.25 139.919 217.631 138.252 217.887C134.929 217.836 132.637 215.81 131.314 211.816C130.081 208.654 128.584 205.6 126.839 202.687C125.997 199.069 125.046 196.336 123.928 194.442C123.579 193.742 123.352 192.987 123.258 192.211H123.035C123.035 192.827 122.863 194.385 122.588 196.895C122.639 198.676 122.811 199.571 123.035 199.571C122.669 200.723 122.517 201.932 122.588 203.138V207.371C122.578 208.045 122.503 208.715 122.364 209.374C122.934 210.794 123.237 212.307 123.258 213.836C123.258 215.508 121.413 216.564 117.66 216.952C114.303 216.952 112.343 216.284 111.845 214.949C109.771 207.982 108.711 198.51 108.711 186.419L107.565 173.49L108.018 169.495C107.729 167.576 107.578 165.639 107.565 163.698V161.695C107.565 159.801 107.622 157.741 107.788 155.453C107.633 154.873 107.557 154.274 107.565 153.673L108.018 150.997C107.714 148.706 107.563 146.398 107.565 144.087C108.35 137.622 109.416 133.331 110.699 131.157C111.146 131.157 111.765 130.045 112.492 127.814C115.792 124.864 119.15 123.357 122.565 123.357C122.616 123.357 123.625 123.3 125.47 123.135C130.701 123.106 134.167 124.613 135.788 127.562ZM120.571 140.047C120.672 144.005 121.045 147.951 121.688 151.858V153C121.681 153.673 121.606 154.344 121.465 155.002C122.083 156.954 122.364 159.63 122.364 163.025L122.588 163.921C126.025 160.965 127.744 155.002 127.744 146.09C127.744 138.455 126.18 133.268 123.046 130.484H122.823C121.533 130.484 120.806 133.337 120.582 138.957L120.571 140.047ZM122.811 191.532V191.977H123.035V191.532H122.811Z" fill="white"/>
<path d="M182.059 129.514C185.084 129.514 186.929 130.684 187.657 133.08C189.278 136.76 190.957 142.501 192.578 150.244L193.942 158.489L193.719 161.61C193.885 165.513 193.942 168.189 193.942 169.632C193.942 173.056 193.214 177.381 191.702 182.784C191.198 192.593 190.585 197.494 189.914 197.494C187.955 202.904 184.036 207.246 178.272 210.424C173.516 212.484 169.489 213.545 166.189 213.545H165.965L165.518 213.768V213.528L165.071 213.751C162.888 213.751 160.425 212.244 157.686 209.294C155.331 206.224 153.102 202.105 150.971 197.032C149.012 191.07 148.061 184.103 148.061 176.08C148.061 173.741 148.582 162.15 149.625 141.308V137.742C149.625 135.071 150.69 133.748 152.759 133.748C154.383 133.028 156.138 132.649 157.915 132.635H159.256L159.703 132.413V132.635C159.875 132.635 159.926 132.578 159.926 132.413C162.837 132.413 165.129 133.805 166.865 136.646C167.383 138.234 167.684 139.885 167.758 141.553C167.483 145.006 167.311 147.259 167.311 148.235C167.311 149.074 167.758 151.915 168.658 156.708C168.486 160.275 168.263 163.116 167.988 165.176L168.434 170.751L168.211 171.196C168.197 171.508 168.275 171.817 168.434 172.086C168.263 174.037 168.211 175.595 168.211 176.765V180.108C168.282 183.321 168.581 186.524 169.105 189.694H168.881C169.143 191.351 169.517 192.989 169.999 194.596C170.841 193.82 172.015 189.415 173.58 181.472C173.58 180.525 174.25 176.622 175.596 169.878C176.209 166.928 176.547 160.354 176.714 150.266C176.88 150.266 176.994 149.376 177.16 147.59C177.106 146.539 176.956 145.494 176.714 144.469H176.937C176.656 143.693 176.49 141.964 176.49 139.334V133.759C176.49 131.699 178.054 130.307 181.188 129.525L182.059 129.514Z" fill="white"/>
<path d="M234.621 127.174C237.027 127.174 238.202 128.007 238.202 129.628C238.425 129.628 238.655 131.243 238.878 134.529C239.613 136.033 240.211 137.599 240.666 139.208L240.219 149.684C240.713 152.331 240.937 155.021 240.889 157.712V157.935C240.952 159.449 240.724 160.962 240.219 162.391C240.551 164.38 240.701 166.395 240.666 168.411V168.634C240.666 171.253 240.442 173.147 239.995 174.425C240.113 175.238 240.188 176.057 240.219 176.879C240.219 183.286 239.938 187.577 239.325 189.808C239.491 192.758 239.548 194.653 239.548 195.6C239.405 197.172 239.181 198.735 238.878 200.284L239.101 203.4C239.101 207.525 235.016 210.424 226.789 212.096C224.44 212.096 222.371 210.532 220.521 207.417C219.908 205.02 218.453 200.227 216.046 193.152L212.689 181.335H212.465C212.332 182.445 212.258 183.561 212.242 184.679V185.569C212.523 193.375 212.689 197.665 212.689 198.498C212.356 204.741 211.961 208.136 211.571 208.769C209.555 210.104 207.71 210.772 205.974 210.772C200.771 210.772 198.142 207.919 198.142 202.304C198.589 195.897 198.812 192.216 198.812 191.383C198.342 188.432 198.043 185.456 197.918 182.47C198.003 181.422 198.152 180.38 198.365 179.349L198.142 178.008C198.279 176.824 198.354 175.634 198.365 174.442C198.315 172.505 198.166 170.572 197.918 168.651C198.646 160.457 199.265 152.155 199.712 143.687C199.54 140.675 199.488 138.615 199.488 137.445C199.488 133.713 200.216 131.87 201.723 131.87C202.775 131.393 203.924 131.164 205.08 131.203C211.067 131.203 214.035 131.87 214.035 133.211C214.259 134.158 215.21 135.551 216.94 137.445C217.778 139.088 218.453 140.807 218.957 142.58C220.469 144.252 221.197 146.649 221.197 149.713C222.985 151.44 223.878 154.116 223.878 157.741C225.053 159.356 226.061 163.144 226.789 169.107C227.236 169.216 227.459 170.054 227.459 171.555H227.683C227.683 170.499 228.078 166.266 228.829 158.854C228.829 155.008 228.886 152.777 229.052 152.166C228.877 151.21 228.802 150.239 228.829 149.268V147.91C228.808 147.233 228.883 146.557 229.052 145.901C228.898 145.169 228.823 144.423 228.829 143.676V140.777C229.153 138.633 229.365 136.473 229.465 134.307V129.651C229.465 128.367 230.805 127.534 233.475 127.197L234.621 127.174ZM227.213 172.445V173.113H227.436V172.445H227.213Z" fill="white"/>
<path d="M278.245 144.338C280.337 149.429 281.4 154.882 281.373 160.383C281.545 160.383 281.603 160.777 281.603 161.524C281.603 161.798 281.322 163.361 280.703 166.203C281.494 170.315 281.877 174.495 281.849 178.682V179.133C281.724 183.315 281.259 187.481 280.457 191.589C280.457 194.653 279.173 198.162 276.652 202.065C275.982 205.351 274.807 206.966 273.071 206.966C272.344 208.918 270.78 209.865 268.373 209.865C266.485 209.734 264.611 209.436 262.776 208.975C260.942 209.436 259.07 209.734 257.184 209.865H256.284C252.428 209.865 249.684 207.189 248.005 201.842C246.384 198.887 244.986 194.322 243.754 188.245C243.754 187.189 243.696 186.63 243.53 186.465L243.977 182.225C243.811 179.834 243.754 177.661 243.754 175.766V174.87C243.754 168.132 244.143 164.6 244.871 164.394C244.737 164.196 244.66 163.965 244.648 163.727C244.648 162.391 245.318 159.213 246.664 154.146C246.664 152.195 248.171 147.014 251.139 138.541C252.537 136.869 253.883 135.922 255.15 135.642C258.656 134.309 262.38 133.632 266.133 133.645C272.195 133.645 276.232 137.209 278.245 144.338ZM263.698 145.005C263.079 147.179 262.409 151.248 261.681 157.262V161.033C261.643 161.614 261.407 162.164 261.011 162.591V163.481C261.011 167.384 260.839 169.832 260.564 170.836C260.704 171.647 260.779 172.467 260.787 173.29V175.521C260.787 180.81 261.624 187.72 263.245 196.245H263.469C264.758 194.464 265.875 190.733 266.826 185.101C267.438 180.671 267.738 176.204 267.726 171.732C267.623 167.928 267.323 164.133 266.826 160.36V159.247C266.835 158.425 266.91 157.605 267.05 156.794C265.875 152.001 264.815 148.047 263.921 144.983L263.698 145.005Z" fill="white"/>
<path d="M46.397 52.1131L46.6319 51.8563C46.7236 51.5995 46.8152 51.3599 46.9184 51.1431L46.397 52.1131Z" fill="white"/>
<path d="M92.0093 18.6263L92.3326 18.494C92.2749 18.448 92.3037 18.3847 92.0093 18.6263Z" fill="white"/>
<path d="M0.349755 170.905C0.342622 171.224 0.369509 171.544 0.429967 171.858C0.39559 171.578 0.366943 171.304 0.349755 170.905Z" fill="white"/>
<path d="M339.991 191.549V192.119C340.006 191.929 340.006 191.739 339.991 191.549Z" fill="white"/>
<path d="M9.11548 165.598C9.11548 165.861 9.11548 166.169 9.11548 166.403C9.14057 166.135 9.14057 165.866 9.11548 165.598Z" fill="white"/>
<path d="M333.586 220.278L333.753 220.668C333.741 220.376 333.666 220.273 333.586 220.278Z" fill="white"/>
<path d="M46.9185 51.1442L47.1254 50.772C47.0475 50.8909 46.9783 51.0153 46.9185 51.1442Z" fill="white"/>
<path d="M334.663 136.658C334.703 136.613 334.732 136.561 334.749 136.504C334.617 136.178 334.462 135.864 334.325 135.545C334.462 136.064 334.588 136.424 334.663 136.658Z" fill="white"/>
<path d="M276.2 47.0917C274.555 45.3 272.762 43.6681 270.997 41.9906L274.366 44.564C275.438 45.4084 276.423 46.2757 277.409 47.1202L280.273 49.5624C281.196 50.3555 282.021 51.2 282.863 51.9931C286.266 55.1199 289.074 58.2126 291.852 61.1796L295.8 65.7786L296.797 66.9198L297.742 68.1238L299.667 70.5545L301.661 73.048C302.303 73.921 302.95 74.8111 303.621 75.7183C304.956 77.5385 306.4 79.3987 307.769 81.487L307.047 80.6369C307.469 81.3341 307.944 81.9979 308.468 82.6225C308.794 83.0448 309.184 83.5526 309.66 84.2031C310.261 84.9923 310.82 85.8132 311.333 86.6623C311.963 87.6837 312.69 88.9105 313.544 90.4054C313.968 91.1529 314.455 91.946 314.908 92.8533L316.346 95.8089C316.854 96.8702 317.4 98.0114 317.984 99.2325C318.557 100.482 319.062 101.846 319.652 103.289L320.546 105.538L321.015 106.719C321.164 107.118 321.296 107.535 321.439 107.957C321.997 109.638 322.591 111.428 323.221 113.326L323.158 113.355C323.657 114.347 324.021 115.4 324.241 116.487C324 115.591 323.811 114.684 323.531 113.805L322.711 111.158C324.272 114.357 325.642 117.646 326.814 121.006C327.054 121.919 326.963 122.284 326.9 122.399C327.902 125.873 329.037 129.32 329.81 132.863L330.125 136.201C330.251 136.595 330.366 136.914 330.48 137.194C330.595 137.474 330.675 137.708 330.773 137.924C330.967 138.358 331.162 138.723 331.346 139.271C331.616 140.059 331.827 140.865 331.976 141.685C332.085 142.255 332.199 142.929 332.32 143.733L332.509 145.051C332.549 145.53 332.583 146.044 332.623 146.603C332.847 143.18 333.574 150.934 333.769 149.804C333.769 150.261 333.769 151.288 333.769 152.115C333.815 152.446 333.861 152.788 333.912 153.154C333.964 153.519 333.987 153.895 334.021 154.295C334.096 155.082 334.176 155.91 334.256 156.771C334.405 158.483 334.629 160.297 334.749 162.032C334.938 165.501 335.144 168.622 335.322 169.861C335.322 169.861 335.379 168.56 335.465 166.517C335.551 164.474 335.757 161.673 335.677 158.7C335.677 157.21 335.677 155.676 335.677 154.169V153.028C335.677 152.651 335.643 152.286 335.625 151.921C335.591 151.187 335.557 150.474 335.522 149.781C335.385 147.014 335.362 144.612 335.236 143.191C335.557 145.063 335.603 146.141 335.694 146.654C335.786 147.168 335.78 147.134 335.774 146.814C335.774 146.175 335.677 144.395 335.62 143.642L335.373 143.174C334.726 138.666 335.133 138.609 334.841 136.327C334.806 136.327 334.783 136.407 334.755 136.481L334.858 136.755C334.823 136.983 334.755 136.869 334.669 136.635C334.594 136.709 334.497 136.509 334.233 135.3L334.331 135.522C333.844 133.679 333.185 130.461 332.87 129.057L333.196 128.943C332.604 127.361 332.112 125.743 331.724 124.099C331.431 122.958 331.151 121.68 330.801 120.333C330.452 118.986 330.034 117.6 329.655 116.191C329.277 114.781 328.899 113.338 328.475 111.991C328.051 110.644 327.598 109.326 327.209 108.128L326.132 104.904C325.782 103.991 325.467 103.249 325.238 102.725C324.86 101.635 324.401 100.505 323.886 99.3409L323.078 97.5664C322.803 96.9672 322.459 96.3852 322.144 95.7804L320.167 92.1058C319.847 91.4724 319.52 90.8391 319.193 90.2057L318.162 88.317C313.67 80.3287 316.334 84.0718 314.151 80.0092C311.207 75.0393 314.444 81.2075 313.172 79.2731L311.504 76.2376C310.932 75.2333 310.307 74.269 309.705 73.2762C312.077 76.5286 310.983 74.6342 310.662 73.9552C309.803 72.7284 308.852 71.302 307.872 69.8355C307.626 69.4761 307.385 69.0995 307.133 68.74L306.342 67.673L304.801 65.596C303.787 64.2608 302.859 63.0169 302.034 62.0869C301.464 61.4037 300.805 60.7993 300.074 60.2895C298.808 58.709 297.868 57.505 297.141 56.5578C296.413 55.6106 295.817 54.9602 295.365 54.3953C294.442 53.2541 293.892 52.5751 292.7 51.3084C293.417 52.2384 294.935 53.9902 294.849 54.0986C292.821 51.5423 293.703 53.0259 294.585 54.0358C294.133 53.6136 293.531 52.9916 292.815 52.2327C292.099 51.4739 291.308 50.521 290.357 49.6137L287.332 46.5953L285.774 44.9805C285.258 44.4099 284.691 43.9477 284.152 43.4285L281.03 40.4842C280.525 40.0277 280.044 39.5827 279.586 39.1604L278.234 38.0478C276.515 36.6784 275.334 35.7654 275.014 35.7654L275.1 35.657C273.845 35.4002 274.968 36.9522 272.057 35.0864L270.338 33.5515L267.376 31.7484C265.583 30.2592 266.597 30.7955 266.637 30.7385C266.064 30.3448 265.417 29.9625 264.752 29.5973L262.695 28.3306C261.297 27.4633 259.876 26.4819 258.37 25.5632L253.786 22.813C253.007 22.3622 252.262 21.8715 251.494 21.4606L249.202 20.2453C250.159 21.027 251.128 21.7745 252.067 22.5847L254.817 25.044L252.864 23.7544C252.165 23.298 251.437 22.7901 250.658 22.3508C249.105 21.4378 247.489 20.4906 245.988 19.6347C244.681 18.871 243.333 18.1795 241.949 17.5635C241.243 17.1948 240.492 16.9186 239.714 16.7418C238.729 16.1199 237.755 15.4694 236.758 14.8646C234.163 13.5808 232.375 12.7762 231.103 12.2627C230.461 12.0059 229.957 11.8233 229.533 11.6921C229.184 11.5958 228.83 11.5177 228.473 11.4581C227.212 11.3908 225.974 11.0889 224.824 10.568L222.159 9.37548C221.271 8.97036 220.355 8.65654 219.449 8.28565C220.372 8.56524 221.317 8.78777 222.228 9.1073L224.973 10.0374C223.62 9.51243 222.475 9.03883 221.438 8.65653L218.573 7.65229L215.92 6.69369C215.015 6.37416 214.069 5.96904 212.952 5.6438H212.901C213.083 5.68148 213.258 5.74489 213.422 5.8321L212.626 5.66662C211.841 5.8321 208.838 5.2615 204.856 4.40561C201.992 3.86926 199.448 3.45273 196.463 3.00766C194.962 2.83078 193.357 2.61966 191.558 2.34577C190.653 2.20883 189.708 2.05477 188.694 1.88359L185.451 1.45565L183.096 1.84935C181.95 1.71241 180.804 1.54124 179.658 1.43853L176.181 1.17605V0.719583C179.618 0.719583 184.523 1.10188 189.679 1.53553L197.414 2.45989L204.518 3.68096L204.713 3.50408C202.141 3.05331 199.385 2.58542 196.841 2.22024C194.286 1.94065 191.954 1.68959 190.241 1.44994C189.828 1.37576 189.255 1.25023 188.671 1.119C188.086 0.98776 187.496 0.890759 187.055 0.770934C186.178 0.536991 185.909 0.320166 187.479 0.285931L184.213 0.48564C179.859 0.0919304 176.57 0.13187 173.82 0.0405755C171.07 -0.0507194 168.847 0.0405755 166.601 0.0405755L163.163 0.0748119C161.96 0.0748119 160.682 0.188931 159.256 0.251697L154.477 0.48564C152.696 0.599758 150.713 0.839405 148.433 1.05623H150.037C148.25 1.35294 146.462 1.62682 145.001 1.84935C143.975 2.0915 142.921 2.19514 141.867 2.15748L137.799 2.84219L136.785 3.01337L135.777 3.23019L133.777 3.65814C131.118 4.22873 128.477 4.71374 126.014 5.36992L122.381 6.26575L120.662 6.68228C120.089 6.81352 119.551 6.9904 119.006 7.13876C116.846 7.74929 114.858 8.27994 113.111 8.725C112.675 9.05595 112.24 9.3926 111.822 9.75778C109.656 10.5794 106.092 11.0987 105.336 12.2113C104.574 12.5366 103.846 12.936 103.107 13.3012L100.896 14.4423C99.4403 15.0757 98.3002 15.6577 97.1027 16.2397C95.7798 16.9662 94.4159 17.6158 93.0176 18.1854L92.3817 18.4365C92.3817 18.4365 92.416 18.4365 92.4389 18.4365C90.8118 19.2011 90.0154 19.5777 89.6258 19.8459C89.2362 20.114 89.2476 20.1597 89.2247 20.2396C89.2018 20.3195 89.0242 20.599 85.386 22.5219C84.4592 22.8797 83.6208 23.4325 82.9281 24.1424C81.996 25.0928 80.94 25.9142 79.7883 26.5846L75.9152 28.1594C73.5456 29.5832 71.2823 31.1754 69.143 32.9239C68.169 33.7284 67.1606 34.6356 65.8543 35.7768C65.2011 36.3474 64.4792 36.918 63.6656 37.5913C63.2646 37.9223 62.8234 38.2646 62.3765 38.6412L61.0186 39.8395C57.008 42.915 54.7162 44.039 56.882 41.4086C55.3522 43.166 55.0829 43.6396 54.5902 44.176C54.0975 44.7123 53.4787 45.3571 51.3874 47.5995C50.4994 48.0389 50.9291 47.5482 51.7255 46.4583C50.6827 47.3313 50.0066 47.9305 49.5655 48.3698C49.2441 48.6894 48.9544 49.0391 48.7003 49.414C48.109 50.3181 47.4192 51.1543 46.6435 51.9075C46.2195 53.1514 45.9158 54.7262 45.0335 55.7019L46.2481 54.6806L45.1996 55.9302L44.1683 57.2368C43.4751 58.1156 42.7474 59.0057 41.9969 59.8958C41.2463 60.7859 40.4499 61.6646 39.7051 62.5947C38.9603 63.5248 38.1467 64.4662 37.3216 65.402L37.2185 65.0825L35.6257 67.2165L34.8351 68.2778C34.5772 68.643 34.3366 69.0139 34.0845 69.3791L33.6032 69.4418L31.4432 72.563L30.3604 74.1264L29.8218 74.9081L29.3176 75.7126L29.965 74.891C29.4952 75.6499 28.4983 77.2818 27.3753 79.0563C26.8024 79.9464 26.2294 80.8708 25.6565 81.7438C25.0835 82.6168 24.6023 83.4841 24.1382 84.1802L24.0293 83.9805C23.3704 84.962 22.7459 85.9377 22.1443 86.9077C21.5427 87.8777 20.9526 88.8363 20.4255 89.8348C19.3942 91.8205 18.4259 93.829 17.4519 95.8432C16.4779 97.8574 15.693 100.06 14.7533 102.302C14.5242 102.873 14.2663 103.443 14.0486 104.014L13.3897 105.8L11.9631 109.543L12.1235 108.048C11.2469 109.76 11.2927 110.028 11.3329 110.41C11.373 110.793 11.373 111.266 10.5708 113.36L10.038 113.406C9.83215 114.863 9.40116 116.28 8.76033 117.606C8.51396 118.113 8.25041 118.581 7.97539 119.078C7.69493 119.621 7.44437 120.179 7.22484 120.75L8.19312 119.711L6.65189 124.607C6.3647 125.541 6.02615 126.459 5.63778 127.357C5.42006 127.899 5.26536 128.099 5.15077 128.099C4.93306 128.099 4.85857 127.306 4.81274 126.861C4.65804 128.156 4.54918 129.457 4.41741 130.752L3.69549 131.357C3.71985 132.399 3.56284 133.438 3.23141 134.427C2.76599 135.926 2.47192 137.472 2.3548 139.037C2.07406 139.397 2.17146 138.141 1.78186 139.785L1.43236 143.819L1.31204 147.927L1.44955 145.462C1.49539 144.64 1.52403 143.813 1.62716 142.997L2.34334 143.716C2.33609 145.664 2.1578 147.608 1.81051 149.525C1.47092 151.066 1.27908 152.637 1.23756 154.215C1.23756 153.376 1.18027 152.532 1.23756 151.693C1.15735 152.429 1.14016 153.091 1.10005 153.673C1.05995 154.255 1.01984 154.768 0.991197 155.225C0.910984 156.143 0.82504 156.84 0.733369 157.462C0.561485 158.694 0.343766 159.601 0.160424 161.279C0.372414 160.24 0.73337 158.671 0.658888 161.079C0.658888 162.848 0.338038 162.021 0.206261 163.692C0.475545 163.904 0.658885 165.079 0.727638 166.677C0.762015 167.475 0.767744 168.388 0.727638 169.33C0.687532 170.271 0.72764 171.27 0.676075 172.24C0.595863 172.189 0.521379 172.109 0.464084 171.858C0.649563 172.918 0.70918 173.996 0.6417 175.07L0 174.071L0.670345 177.364C0.644487 178.532 0.721172 179.701 0.899523 180.856C1.01411 181.894 1.07714 182.625 0.859417 182.493L0.6417 181.25C0.945361 186.819 1.55841 192.37 2.4121 197.888L1.9652 198.196C2.44648 198.961 2.78451 201.215 3.11109 203.2C3.22575 204.057 3.40385 204.903 3.64393 205.734C3.82727 206.356 4.01062 206.692 4.21688 206.51C4.33904 207.588 4.53041 208.657 4.78982 209.711C5.08775 210.96 5.36277 212.33 5.75237 213.517C6.45136 215.896 6.89826 217.693 6.205 216.94C6.57741 218.27 6.93836 219.519 7.29932 220.712C7.66027 221.904 8.12436 222.994 8.52542 224.09L9.74006 227.285C9.9406 227.81 10.1297 228.335 10.3531 228.854L11.0349 230.406L13.8996 237.048C14.4726 238.229 15.0112 239.484 15.6185 240.825L16.518 242.908C16.6727 243.267 16.8217 243.638 16.9878 244.009C17.154 244.38 17.3373 244.745 17.5207 245.122C18.8629 248.833 20.5669 252.405 22.6084 255.786C23.2272 256.865 23.8345 257.977 24.4991 259.061L26.5617 262.274L28.5556 265.378C29.2202 266.371 29.9077 267.295 30.5151 268.185C34.9292 274.197 39.7331 279.915 44.896 285.303L48.6144 289.029C49.2446 289.651 49.8577 290.301 50.5223 290.912L52.5448 292.761C53.9199 293.999 55.2892 295.317 56.7903 296.601L61.5286 300.561C62.4674 301.558 63.4662 302.497 64.5193 303.374C65.6079 304.309 66.7653 305.262 67.957 306.227C68.53 306.717 69.1888 307.174 69.842 307.625L71.8072 308.988C73.1364 309.89 74.4771 310.826 75.8579 311.71L80.0633 314.255L82.1431 315.522C82.8307 315.949 83.5468 316.309 84.2344 316.708C87.0246 318.238 89.6143 319.852 92.0493 321.205L94.9714 322.192C95.7563 322.682 96.5928 323.213 97.5152 323.692C98.4377 324.172 99.4231 324.634 100.449 325.108C102.506 326.055 104.706 327.093 107.083 327.96C111.776 329.838 116.904 331.561 121.779 333.415C124.289 333.923 125.584 334.226 126.162 334.374C125.71 334.226 125.045 333.946 124.908 333.609C125.607 333.86 126.495 334.134 127.423 334.414C127.893 334.545 128.363 334.699 128.838 334.819L130.219 335.156C131.978 335.595 133.319 335.989 133.044 336.217L132.299 336.103C132.018 336.331 134.235 336.776 136.882 337.301C139.581 337.706 142.732 338.18 144.331 338.71L142.64 337.797L145.396 338.334L148.175 338.739L146.668 338.665L151.086 339.007C152.507 339.116 153.876 339.281 155.217 339.31C157.892 339.429 160.402 339.595 162.802 339.743C165.209 339.789 167.5 339.857 169.735 339.937L171.396 340H173.047H176.307C184.935 339.886 193.495 339.429 204.604 336.576C203.178 337.147 204.266 336.885 205.75 336.536C207.234 336.188 209.131 335.606 209.354 335.926C210.753 335.835 212.143 335.644 213.514 335.355C214.79 335.051 216.044 334.66 217.266 334.186C219.661 333.29 221.907 332.388 224.09 331.47C224.09 331.435 224.119 331.378 224.36 331.236L228.278 329.963C228.932 329.746 229.591 329.552 230.232 329.313L232.163 328.577C227.906 331.236 237.411 325.724 233.487 328.08C244.785 323.986 255.541 318.535 265.514 311.847C266.884 311.008 268.167 310.038 269.485 309.108L273.432 306.255L277.254 303.248C278.514 302.232 279.826 301.28 281.024 300.195L284.691 297.034C285.264 296.498 285.922 296.002 286.495 295.442L288.214 293.799L291.686 290.541C292.832 289.44 293.892 288.299 294.992 287.192L294.064 287.819C295.164 286.678 296.31 285.474 297.473 284.236C298.636 282.998 299.696 281.645 300.785 280.373C303.019 277.88 304.916 275.363 306.56 273.611C308.175 271.8 309.578 269.811 310.742 267.683C311.315 266.707 311.82 265.806 312.244 265.047C312.668 264.288 312.971 263.649 313.218 263.261C314.282 261.306 315.501 259.438 316.861 257.675C317.767 256.397 318.248 255.963 317.669 256.91C318.34 255.683 318.97 254.457 319.589 253.201C320.207 251.946 320.861 250.674 321.434 249.293C322.007 247.912 322.683 246.514 323.416 245.019C323.771 244.266 324.201 243.513 324.562 242.697C324.923 241.881 325.347 241.059 325.788 240.192C326.602 238.956 327.284 237.638 327.822 236.26C328.618 234.303 329.449 231.873 330.286 229.533C330.492 228.963 330.715 228.392 330.893 227.793C331.071 227.194 331.237 226.652 331.403 226.081C331.741 224.991 332.056 223.981 332.342 223.131C332.915 221.419 333.362 220.307 333.591 220.318L333.546 220.215C334.376 217.876 335.093 215.536 335.757 213.191C336.118 212.05 336.33 210.823 336.599 209.631C336.869 208.438 337.098 207.24 337.35 206.042C337.47 205.437 337.596 204.838 337.722 204.233C337.848 203.628 337.923 203.012 338.026 202.396C338.229 201.175 338.435 199.938 338.645 198.687C338.754 198.065 338.868 197.443 338.983 196.81C339.098 196.176 339.224 195.549 339.309 194.91C339.499 193.626 339.711 192.33 339.945 191.012C339.976 191.201 339.993 191.392 339.997 191.583C340.038 184.337 339.625 177.095 338.759 169.9C337.736 171.932 336.706 173.927 335.671 175.886L335.316 178.168C335.179 178.922 335.007 179.669 334.852 180.416L333.912 184.89C333.632 186.379 333.219 187.846 332.829 189.312L331.684 193.7C330.533 201.739 328.81 209.686 326.527 217.482C324.161 225.266 321.257 232.876 317.836 240.26C311.85 251.774 304.544 262.558 296.064 272.396C291.006 278.419 285.557 284.105 279.752 289.417C273.88 294.68 267.657 299.541 261.125 303.967L256.152 307.162C255.333 307.733 254.468 308.195 253.614 308.686L251.053 310.164L248.492 311.647L245.856 313L243.215 314.369C242.333 314.82 241.496 315.293 240.557 315.681L235.171 318.129C234.277 318.557 233.349 318.888 232.432 319.27L229.682 320.36L226.926 321.45L224.125 322.403L221.317 323.362C220.383 323.675 219.455 324.018 218.498 324.269L212.15 326.751C202.949 328.508 192.464 330.351 181.646 331.093C170.829 331.835 159.743 331.544 149.842 329.804L149.355 330.311C147.946 330.134 146.909 330.02 146.141 329.849C145.373 329.678 144.863 329.547 144.485 329.433C143.723 329.199 143.494 329.039 142.812 328.862L140.377 328.44C139.564 328.286 138.744 328.183 137.948 327.978L133.118 326.888L130.7 326.317L128.311 325.65L123.527 324.32C121.94 323.846 120.381 323.293 118.806 322.779C117.23 322.266 115.643 321.787 114.113 321.148C111.025 319.944 107.908 318.82 104.906 317.41C103.399 316.731 101.864 316.098 100.38 315.373L95.9454 313.148C95.2063 312.771 94.4672 312.412 93.7338 312.007L91.5795 310.786L87.2653 308.355C81.639 304.97 76.2172 301.258 71.028 297.24C65.9004 293.272 61.0123 289.006 56.3892 284.464L53.0547 281.001C51.9489 279.859 50.8202 278.718 49.8004 277.491C47.7149 275.084 45.595 272.733 43.6985 270.216C42.736 268.973 41.7505 267.751 40.8338 266.508L38.1008 262.73L36.7602 260.83C36.3018 260.203 35.9179 259.529 35.4939 258.884L33.0303 254.993C32.1766 253.721 31.4776 252.363 30.7385 251.05C29.9994 249.738 29.2546 248.408 28.5097 247.096L26.4987 243.073L25.5075 241.076L25.0091 240.078C24.8544 239.747 24.7111 239.399 24.5622 239.062C23.8116 236.894 21.8349 232.74 20.3166 228.523L19.1306 225.442C18.8041 224.432 18.4947 223.462 18.2025 222.589C17.6295 220.809 17.2055 219.337 17.0165 218.464C16.8331 218.019 16.6727 217.568 16.5237 217.111L16.0768 215.736C15.7713 214.819 15.4714 213.899 15.1773 212.975C14.8794 212.05 14.6044 211.12 14.2892 210.19L13.5501 207.337C13.3095 206.39 13.0631 205.437 12.8225 204.484C12.5819 203.531 12.3069 202.578 12.1407 201.603C11.7683 199.668 11.3959 197.723 10.9948 195.783C10.9089 195.298 10.8057 194.813 10.7313 194.322L10.5365 192.855L10.1411 189.917C10.0151 188.935 9.88903 187.954 9.75725 186.978C9.62547 186.003 9.5911 185.015 9.50516 184.04C9.35619 182.077 9.21296 180.125 9.06399 178.18C9.02388 176.234 8.98378 174.294 8.94367 172.371L9.01815 172.942C8.98378 171.738 8.89211 170.528 8.90357 169.318L8.93794 165.695C8.99524 165.387 9.06399 165.353 9.09836 165.587C9.06399 164.565 9.04107 163.47 9.03534 162.312C9.03534 161.741 9.03534 161.142 9.09264 160.537C9.14993 159.932 9.17285 159.316 9.20723 158.688C9.40203 156.183 9.5338 153.49 9.98643 150.78C10.4391 148.07 10.7313 145.279 11.35 142.603C11.9688 139.927 12.3813 137.28 13.0689 134.872L12.9944 135.442C13.4126 133.668 13.8194 131.899 14.232 130.136C14.6445 128.373 15.2117 126.649 15.693 124.909L16.4321 122.307C16.6784 121.44 17.005 120.596 17.2743 119.74C17.8472 118.028 18.4202 116.316 18.9931 114.639C19.5661 112.961 20.2937 111.301 20.9411 109.634L21.9151 107.141L23.0095 104.699L25.1981 99.8316C26.0002 98.2454 26.8043 96.6629 27.6102 95.0843C28.017 94.2969 28.4009 93.498 28.8191 92.7163L30.1369 90.434C31.0192 88.8991 31.8557 87.3528 32.7782 85.835L35.6429 81.3672C36.1242 80.6255 36.5653 79.8609 37.081 79.1419L38.605 76.9851C42.6311 71.2057 47.0331 65.6953 51.7828 60.4892C54.2121 57.9444 56.5783 55.3539 59.1738 52.9517L61.0759 51.1258L62.0328 50.2128C62.3593 49.9161 62.6974 49.6422 63.0239 49.3398L67.0346 45.8763C72.4425 41.3231 78.1587 37.146 84.1427 33.3746C87.0934 31.4004 90.2331 29.7285 93.3098 27.9483C94.8682 27.0867 96.4839 26.3278 98.071 25.5119L100.466 24.3022C101.262 23.8971 102.093 23.5661 102.907 23.1952L107.828 21.0213C109.496 20.348 111.186 19.7317 112.864 19.0813L115.391 18.117C116.245 17.8203 117.11 17.5464 117.964 17.2725L123.12 15.6064L128.053 14.3453L130.557 13.6949C131.399 13.4952 132.276 13.3354 133.112 13.1243L138.269 11.9831C139.988 11.6464 141.781 11.3726 143.551 11.053L146.227 10.5851C147.121 10.4254 148.026 10.3455 148.931 10.22L154.409 9.55236C156.248 9.36977 158.104 9.24424 159.961 9.08448L162.762 8.85054C163.696 8.79918 164.641 8.78777 165.581 8.75354L171.259 8.56524L176.988 8.67365C177.945 8.67365 178.902 8.67365 179.853 8.74212L182.718 8.94754C184.632 9.10159 186.557 9.1986 188.476 9.40401C192.298 9.90613 196.148 10.317 199.935 11.1158C203.756 11.7492 207.498 12.7648 211.239 13.712C211.915 13.9231 213.428 14.4481 215.593 15.0928L219.289 16.1884L223.735 17.7233C226.949 18.7389 230.444 20.2453 234.203 21.7174L239.84 24.2451L241.279 24.8899L242.694 25.6032L245.559 27.0353L248.395 28.4732L251.145 30.031L253.86 31.5601L255.195 32.319L256.485 33.1293L261.429 36.2333C262.982 37.2775 264.443 38.316 265.824 39.2689L267.823 40.6497C268.465 41.1005 269.044 41.5741 269.616 42.002L272.676 44.3243C274.469 45.6253 275.644 46.6752 276.2 47.0917Z" fill="white"/>
<path d="M326.866 122.429L326.797 122.199C326.583 122.279 326.768 122.601 326.866 122.429Z" fill="white"/>
<path d="M248.79 20.0457L249.168 20.2454L247.896 19.2126L248.79 20.0457Z" fill="white"/>
<path d="M312.656 76.8367C312.076 75.851 311.441 74.8985 310.754 73.9838C310.473 73.6186 310.496 73.7156 310.611 73.9838C311.012 74.5543 311.396 75.0964 311.757 75.57C312.118 76.0436 312.387 76.4886 312.656 76.8367Z" fill="white"/>
<path d="M333.454 152.115C333.683 154.061 333.729 153.308 333.746 152.144L333.271 148.783C333.351 149.884 333.368 150.985 333.454 152.115Z" fill="white"/>
<path d="M335.614 143.676L335.918 144.247C335.666 143.111 335.603 143.168 335.614 143.676Z" fill="white"/>
<path d="M23.8633 126.855C24.694 123.968 27.1462 122.541 30.0625 123.368C32.9788 124.196 34.245 126.792 33.3856 129.805L32.7267 132.087L36.703 133.228L35.7175 136.652L22.1616 132.783L23.8633 126.855ZM30.137 131.362L30.5839 129.805C31.0022 128.35 30.4865 127.271 29.0713 126.866C27.6562 126.461 26.6535 127.106 26.241 128.549L25.7884 130.119L30.137 131.362Z" fill="white"/>
<path d="M42.1917 117.126L29.2087 111.626L30.6125 108.339L43.5954 113.84L42.1917 117.126Z" fill="white"/>
<path d="M45.7555 103.974L41.4469 93.7662L41.3896 93.7319L38.1009 99.4093L35.5972 97.9657L41.023 88.6479L42.9939 89.7891L47.2681 99.9799L47.3254 100.014L50.763 94.08L53.2611 95.5236L47.7264 105.115L45.7555 103.974Z" fill="white"/>
<path d="M56.8076 86.3883L54.0403 75.6669L53.9887 75.627L49.8864 80.7623L47.6233 78.9706L54.3497 70.543L56.1315 71.958L58.9103 82.651L58.9676 82.6966L63.2532 77.3273L65.5164 79.119L58.5895 87.792L56.8076 86.3883Z" fill="white"/>
<path d="M79.1181 65.4933L72.0823 72.0951L62.4053 61.8758L69.441 55.2683L71.4292 57.3681L67.0003 61.522L68.9254 63.5533L73.085 59.6448L74.8955 61.562L70.7588 65.4648L72.7297 67.5475L77.1529 63.3936L79.1181 65.4933Z" fill="white"/>
<path d="M89.5915 57.2425L86.6581 59.2966L78.5452 47.8049L83.5011 44.3356C86.3659 42.3215 88.9327 42.6524 90.6114 45.0261C91.1141 45.6802 91.4126 46.4671 91.4697 47.2889C91.5267 48.1107 91.3398 48.9311 90.9322 49.6479L96.381 52.5008L93.0865 54.7832L88.2738 52.1471L86.7497 53.2084L89.5915 57.2425ZM85.3403 51.2227L87.0591 50.0073C88.1363 49.2485 88.3368 48.1757 87.6321 47.1544C87.4816 46.9273 87.2848 46.7344 87.0545 46.588C86.8242 46.4417 86.5656 46.3452 86.2954 46.3048C86.0253 46.2645 85.7496 46.2811 85.4864 46.3538C85.2231 46.4264 84.9781 46.5534 84.7674 46.7264L83.0485 47.9361L85.3403 51.2227Z" fill="white"/>
<path d="M97.5842 34.4074L98.1572 30.6301L100.861 29.2036L99.9276 33.1978L97.5842 34.4074ZM104.362 47.9476L97.7447 35.5429L100.913 33.8654L107.531 46.2701L104.362 47.9476Z" fill="white"/>
<path d="M123.206 36.1137L118.886 37.7342L119.138 40.9352L115.7 42.219L115.162 27.3836L119.27 25.843L128.678 37.3176L125.108 38.6585L123.206 36.1137ZM118.622 35.0866L121.63 33.9454L118.25 29.432H118.176L118.622 35.0866Z" fill="white"/>
<path d="M149.166 32.5304L147.568 18.568L150.432 18.2484L157.308 25.6661H157.382L156.454 17.5523L159.834 17.1643L161.439 31.1267L158.62 31.4462L151.704 23.9315H151.624L152.564 32.1252L149.166 32.5304Z" fill="white"/>
<path d="M179.744 28.0853L175.132 27.9427L174.135 30.9953L170.48 30.8812L175.665 16.9587L180.054 17.1014L184.345 31.292L180.535 31.1722L179.744 28.0853ZM175.906 25.3921L179.12 25.4948L177.733 20.0342H177.653L175.906 25.3921Z" fill="white"/>
<path d="M202.118 19.9716C205.08 20.5422 206.702 22.8759 206.129 25.8316C205.556 28.7872 203.046 30.2765 199.969 29.6717L197.638 29.2152L196.835 33.255L193.318 32.5589L196.051 18.7791L202.118 19.9716ZM198.153 26.5791L199.746 26.8929C201.241 27.1839 202.278 26.5848 202.565 25.1412C202.851 23.6976 202.118 22.7618 200.646 22.4708L199.03 22.157L198.153 26.5791Z" fill="white"/>
<path d="M228.462 35.2462C226.909 39.4514 223.42 41.1404 219.409 39.674C215.399 38.2075 213.829 34.6699 215.399 30.4646C216.969 26.2593 220.452 24.5647 224.463 26.0311C228.473 27.4975 230.037 31.0466 228.462 35.2462ZM218.813 31.7199C217.891 34.2248 218.527 36.2846 220.418 36.9522C222.308 37.6198 224.113 36.5015 225.036 33.9966C225.958 31.4917 225.322 29.4318 223.443 28.7528C221.564 28.0738 219.724 29.2264 218.813 31.7199Z" fill="white"/>
<path d="M242.826 50.4467L234.575 45.9276L241.365 33.6199L244.51 35.3317L239.107 45.1116L244.224 47.9075L242.826 50.4467Z" fill="white"/>
<path d="M258.484 61.2767L250.726 55.5251L259.154 44.2559L266.906 50.0017L265.187 52.3183L260.306 48.7008L258.633 50.9432L263.217 54.3668L261.641 56.4723L257.057 53.0487L255.339 55.3311L260.214 58.9486L258.484 61.2767Z" fill="white"/>
<path d="M268.236 69.9212L276.125 61.9899L273.347 59.2511L275.386 57.2026L283.488 65.1909L281.454 67.2394L278.675 64.5005L270.785 72.4318L268.236 69.9212Z" fill="white"/>
<path d="M286.026 85.4641L283.224 81.8123L280.216 82.9535L277.993 80.0606L292.082 75.2791L294.752 78.7482L286.421 91.0331L284.129 88.0204L286.026 85.4641ZM285.699 80.7967L287.653 83.3472L291.022 78.8167L290.97 78.754L285.699 80.7967Z" fill="white"/>
<path d="M291.285 98.6734L303.707 91.9917L305.064 94.5023L300.681 103.632L300.716 103.7L307.941 99.8202L309.551 102.804L297.135 109.469L295.788 106.987L300.223 97.8003L300.189 97.7319L292.895 101.646L291.285 98.6734Z" fill="white"/>
<path d="M306.778 125.314L305.259 120.972L302.039 121.143L300.836 117.72L315.733 117.554L317.177 121.68L305.42 130.763L304.165 127.174L306.778 125.314ZM307.924 120.784L308.978 123.802L313.596 120.556V120.481L307.924 120.784Z" fill="white"/>
<path d="M316.237 220.723C315.252 223.576 312.725 224.86 309.86 223.873C306.995 222.886 305.85 220.221 306.887 217.271L307.666 215.034L303.758 213.688L304.904 210.31L318.237 214.875L316.237 220.723ZM310.215 215.913L309.683 217.437C309.19 218.874 309.642 219.976 311.035 220.455C312.427 220.934 313.464 220.347 313.957 218.926L314.49 217.379L310.215 215.913Z" fill="white"/>
<path d="M297.398 229.459L310.061 235.644L308.479 238.851L295.817 232.666L297.398 229.459Z" fill="white"/>
<path d="M293.13 242.406L296.883 252.825L296.934 252.859L300.544 247.358L302.968 248.939L297.072 257.949L295.164 256.705L291.394 246.314L291.337 246.274L287.572 252.02L285.149 250.445L291.239 241.167L293.13 242.406Z" fill="white"/>
<path d="M281.138 259.375L283.321 270.217L283.373 270.262L287.75 265.349L289.916 267.261L282.748 275.323L281.03 273.823L278.829 262.981L278.778 262.936L274.194 268.071L272.029 266.16L279.414 257.863L281.138 259.375Z" fill="white"/>
<path d="M257.734 279.055L265.113 272.83L274.234 283.557L266.855 289.782L264.987 287.58L269.628 283.665L267.812 281.531L263.446 285.217L261.727 283.209L266.093 279.529L264.237 277.343L259.596 281.258L257.734 279.055Z" fill="white"/>
<path d="M246.842 286.724L249.884 284.829L257.333 296.743L252.176 299.944C249.191 301.799 246.659 301.331 245.117 298.866C244.65 298.186 244.394 297.384 244.38 296.56C244.367 295.737 244.598 294.927 245.043 294.233L239.778 291.129L243.215 289.006L247.879 291.899L249.455 290.918L246.842 286.724ZM250.755 292.966L248.956 294.107C247.839 294.803 247.581 295.865 248.229 296.897C248.367 297.135 248.555 297.341 248.78 297.502C249.004 297.662 249.261 297.772 249.532 297.826C249.803 297.88 250.082 297.876 250.351 297.815C250.62 297.753 250.873 297.635 251.093 297.468L252.887 296.327L250.755 292.966Z" fill="white"/>
<path d="M231.579 295.226L237.52 307.973L234.266 309.479L228.319 296.732L231.579 295.226ZM237.623 309.12L236.867 312.863L234.088 314.146L235.234 310.221L237.623 309.12Z" fill="white"/>
<path d="M212.121 306.015L216.522 304.635L216.447 301.422L219.931 300.327L219.656 315.162L215.467 316.48L206.707 304.498L210.34 303.357L212.121 306.015ZM216.636 307.294L213.565 308.247L216.693 312.942H216.768L216.636 307.294Z" fill="white"/>
<path d="M186.018 308.201L186.872 322.226L184.007 322.397L177.539 314.603H177.464L177.957 322.756L174.559 322.962L173.706 308.937L176.536 308.766L183.056 316.645H183.13L182.632 308.412L186.018 308.201Z" fill="white"/>
<path d="M155.222 311.025L159.806 311.465L160.997 308.48L164.636 308.829L158.562 322.357L154.197 321.941L150.828 307.499L154.626 307.864L155.222 311.025ZM158.878 313.952L155.675 313.644L156.712 319.179H156.792L158.878 313.952Z" fill="white"/>
<path d="M132.448 317.946C129.52 317.205 128.013 314.803 128.764 311.875C129.514 308.948 132.087 307.602 135.129 308.378L137.421 308.948L138.441 304.954L141.919 305.833L138.435 319.453L132.448 317.946ZM136.768 311.567L135.192 311.168C133.714 310.791 132.648 311.333 132.282 312.76C131.915 314.186 132.597 315.162 134.052 315.533L135.645 315.938L136.768 311.567Z" fill="white"/>
<path d="M106.992 301.257C108.768 297.143 112.337 295.642 116.262 297.325C120.187 299.009 121.562 302.62 119.786 306.734C118.009 310.848 114.423 312.355 110.498 310.671C106.574 308.988 105.216 305.394 106.992 301.257ZM116.428 305.297C117.482 302.849 116.961 300.777 115.11 299.99C113.26 299.203 111.398 300.241 110.338 302.689C109.278 305.137 109.811 307.219 111.65 308.007C113.489 308.794 115.362 307.756 116.428 305.297Z" fill="white"/>
<path d="M93.4647 285.303L101.486 290.261L94.0377 302.187L90.9954 300.298L96.9196 290.821L91.9579 287.751L93.4647 285.303Z" fill="white"/>
<path d="M78.4077 273.657L85.8559 279.814L76.8321 290.609L69.3838 284.453L71.2344 282.239L75.9096 286.113L77.7029 283.962L73.3085 280.322L74.9929 278.302L79.3931 281.942L81.2266 279.74L76.5513 275.871L78.4077 273.657Z" fill="white"/>
<path d="M69.1316 264.493L60.8182 271.997L63.448 274.884L61.2994 276.818L53.6392 268.396L55.782 266.462L58.4061 269.349L66.7481 261.846L69.1316 264.493Z" fill="white"/>
<path d="M52.1955 248.026L54.7966 251.821L57.8619 250.822L59.9245 253.829L45.6009 257.823L43.1257 254.211L52.098 242.395L54.2466 245.527L52.1955 248.026ZM52.2757 252.699L50.4594 250.046L46.8556 254.383L46.9014 254.445L52.2757 252.699Z" fill="white"/>
<path d="M47.6633 234.571L34.9095 240.563L33.6892 237.989L38.5535 229.117L38.5191 229.042L31.0995 232.529L29.6499 229.465L42.4037 223.473L43.6126 226.024L38.6738 234.954L38.7082 235.028L46.1966 231.507L47.6633 234.571Z" fill="white"/>
<path d="M33.6377 207.137L34.9154 211.554H38.1411L39.1552 215.052L24.293 214.407L23.0784 210.207L35.3107 201.78L36.3707 205.426L33.6377 207.137ZM32.2455 211.599L31.3574 208.524L26.5676 211.52V211.594L32.2455 211.599Z" fill="white"/>
<path d="M320.849 174.442C323.381 174.442 325.433 172.399 325.433 169.878C325.433 167.357 323.381 165.313 320.849 165.313C318.318 165.313 316.266 167.357 316.266 169.878C316.266 172.399 318.318 174.442 320.849 174.442Z" fill="white"/>
<path d="M24.0638 175.013C26.5952 175.013 28.6473 172.969 28.6473 170.448C28.6473 167.927 26.5952 165.884 24.0638 165.884C21.5324 165.884 19.4802 167.927 19.4802 170.448C19.4802 172.969 21.5324 175.013 24.0638 175.013Z" fill="white"/>
</svg>
