<svg width="109" height="109" viewBox="0 0 109 109" fill="none" xmlns="http://www.w3.org/2000/svg">
<path d="M25.8456 41.431L26.2772 41.3597H26.4921C27.3352 41.3597 28.4465 41.9853 29.7983 43.2182C30.4266 44.4581 30.7466 45.8301 30.7314 47.2188C30.7314 49.0054 30.3028 51.2206 29.4457 53.8645L28.7275 54.6511C28.7223 55.0823 28.595 55.5033 28.3601 55.8657C29.813 56.2224 30.8159 56.8132 31.3725 57.6529C32.1214 58.0399 32.7625 58.6055 33.2387 59.2992C33.6685 59.9961 33.8834 61.0132 33.8834 62.3723V62.515C33.8834 63.6931 33.6501 64.5272 33.167 65.0156C33.167 65.9632 32.3772 67.0882 30.7994 68.3741L29.363 68.6595C29.363 68.8424 28.9957 69.0253 28.215 69.232C28.0901 69.232 27.7503 69.1058 27.2121 68.8662C25.9741 69.154 25.1127 69.2973 24.6278 69.2961C23.4798 69.2412 22.9067 68.9741 22.9067 68.5095C22.3318 67.8308 22.0452 65.7766 22.0452 62.365C21.7539 60.2325 21.5865 58.0851 21.5438 55.9334C21.3384 54.9715 21.2416 53.9898 21.2554 53.0065C21.3454 52.1322 21.417 50.5956 21.4721 48.3621C21.3821 47.7913 21.3105 47.1657 21.2554 46.5054C21.2554 46.22 21.327 45.3438 21.4721 43.8603L21.3987 42.717C21.5591 41.5743 22.1328 41.003 23.1198 41.003C23.432 40.9986 23.7436 40.9747 24.0528 40.9316L25.8456 41.431ZM26.4205 44.5042L26.9936 50.0066H27.0652C27.2689 49.0656 27.3917 48.1091 27.4325 47.1474V47.0761C27.4325 45.6292 27.0909 44.7365 26.4278 44.3615L26.4205 44.5042ZM27.7834 59.0815C27.7496 59.2224 27.7257 59.3654 27.7117 59.5096C27.9483 61.2864 28.0679 63.0768 28.0699 64.8693V64.9406H28.1416C28.913 63.8431 29.2895 62.9047 29.2895 62.0815C29.2895 61.2254 28.8065 60.2431 27.855 59.1547V59.0833L27.7834 59.0815Z" fill="#E2D105"/>
<path d="M43.5321 40.895C44.3752 41.7181 44.985 43.4321 45.3983 46.0407C45.4516 46.8803 45.4699 47.3797 45.4699 47.5407C45.0934 51.2559 44.7517 53.1144 44.4652 53.1144C44.4652 53.2937 44.1064 53.8656 43.3888 54.8302C42.8256 55.2639 42.298 55.7417 41.811 56.2589L41.7394 56.4016C42.9774 57.8119 43.747 59.0814 44.0354 60.1881C44.0354 60.4918 44.3936 61.3131 45.1118 62.6174C45.1118 62.8003 45.5599 64.2088 46.4747 66.8338C46.5698 67.2317 46.6178 67.6394 46.6179 68.0484V68.2716C46.6179 68.9338 46.3847 69.3253 45.8997 69.4862C45.3838 69.6476 44.8564 69.7699 44.3219 69.8521C43.2566 69.8356 42.5219 69.1862 42.0976 67.9057C41.7023 66.892 41.2224 65.9129 40.663 64.9789C40.393 63.8192 40.0881 62.943 39.7299 62.3357C39.6178 62.1112 39.5451 61.8693 39.515 61.6204H39.4434C39.4434 61.818 39.3883 62.3174 39.3001 63.1222C39.3167 63.693 39.3718 63.9802 39.4434 63.9802C39.3261 64.3494 39.2776 64.7368 39.3001 65.1235V66.4808C39.2971 66.6966 39.2731 66.9116 39.2285 67.1228C39.4111 67.5782 39.5082 68.063 39.515 68.5533C39.515 69.0893 38.9236 69.4277 37.7205 69.5521C36.6441 69.5521 36.0159 69.3381 35.8561 68.91C35.1912 66.6765 34.8514 63.6399 34.8514 59.7637L34.4841 55.6186L34.6292 54.3382C34.5368 53.7228 34.4883 53.1018 34.4841 52.4796V51.8376C34.4841 51.2303 34.5024 50.5699 34.5557 49.8364C34.5057 49.6503 34.4816 49.4583 34.4841 49.2656L34.6292 48.4077C34.5319 47.6733 34.4834 46.9333 34.4841 46.1925C34.7357 44.1199 35.0773 42.7444 35.4888 42.0474C35.6321 42.0474 35.8304 41.6907 36.0637 40.9755C37.1217 40.0297 38.1981 39.5468 39.2928 39.5468C39.3093 39.5468 39.6326 39.5285 40.224 39.4755C41.901 39.4663 43.0123 39.9492 43.5321 40.895ZM38.6536 44.8974C38.6859 46.1662 38.8056 47.4314 39.0118 48.6839V49.0498C39.0096 49.2657 38.9856 49.4808 38.9401 49.6919C39.1385 50.3175 39.2285 51.1754 39.2285 52.2638L39.3001 52.551C40.4022 51.6034 40.9532 49.6919 40.9532 46.8346C40.9532 44.387 40.4518 42.7242 39.4471 41.8316H39.3754C38.9622 41.8316 38.7289 42.7462 38.6573 44.548L38.6536 44.8974ZM39.3718 61.4027V61.5454H39.4434V61.4027H39.3718Z" fill="#E2D105"/>
<path d="M58.366 41.5206C59.3358 41.5206 59.9273 41.8956 60.1605 42.6639C60.6804 43.8438 61.2185 45.684 61.7383 48.1663L62.1755 50.8096L62.1039 51.8102C62.1571 53.0614 62.1755 53.9193 62.1755 54.3821C62.1755 55.4797 61.9422 56.8662 61.4573 58.5985C61.2957 61.743 61.0991 63.3144 60.8842 63.3144C60.2561 65.0485 58.9997 66.4406 57.1519 67.4595C55.6273 68.1198 54.3361 68.4601 53.2781 68.4601H53.2064L53.0632 68.5314V68.4546L52.9199 68.5259C52.2201 68.5259 51.4303 68.043 50.5523 67.0973C49.7974 66.1131 49.0828 64.7924 48.3996 63.1662C47.7714 61.2546 47.4665 59.0211 47.4665 56.4492C47.4665 55.6992 47.6336 51.9834 47.9679 45.3017V44.1584C47.9679 43.3023 48.3095 42.8779 48.9726 42.8779C49.4932 42.6472 50.056 42.5258 50.6257 42.5212H51.0556L51.1988 42.4499V42.5212C51.2539 42.5212 51.2705 42.5029 51.2705 42.4499C52.2036 42.4499 52.9383 42.8962 53.4948 43.8072C53.661 44.3163 53.7574 44.8455 53.7814 45.3804C53.6932 46.4871 53.6381 47.2096 53.6381 47.5224C53.6381 47.7913 53.7814 48.7023 54.0697 50.2389C54.0146 51.3821 53.943 52.2931 53.8548 52.9535L53.9981 54.7407L53.9265 54.8833C53.9219 54.9834 53.9468 55.0826 53.9981 55.1687C53.943 55.7943 53.9265 56.2937 53.9265 56.6687V57.7406C53.9492 58.7705 54.0449 59.7974 54.213 60.8138H54.1414C54.2253 61.3449 54.345 61.8699 54.4995 62.3851C54.7696 62.1363 55.1461 60.7241 55.6475 58.1778C55.6475 57.8742 55.8624 56.623 56.2941 54.4608C56.4906 53.5151 56.599 51.4078 56.6523 48.1736C56.7055 48.1736 56.7423 47.8883 56.7955 47.3157C56.778 46.9786 56.7301 46.6437 56.6523 46.3151H56.7239C56.6339 46.0663 56.5806 45.5121 56.5806 44.6688V42.8816C56.5806 42.2212 57.0821 41.7749 58.0868 41.5243L58.366 41.5206Z" fill="#E2D105"/>
<path d="M75.2168 40.7706C75.9882 40.7706 76.3648 41.0377 76.3648 41.5572C76.4364 41.5572 76.5099 42.0749 76.5815 43.1285C76.8171 43.6105 77.0089 44.1125 77.1546 44.6285L77.0113 47.987C77.1697 48.8356 77.2417 49.6979 77.2262 50.5608V50.6321C77.2464 51.1176 77.1735 51.6025 77.0113 52.0608C77.118 52.6984 77.166 53.3444 77.1546 53.9906V54.062C77.1546 54.9016 77.083 55.5089 76.9397 55.9187C76.9774 56.1794 77.0013 56.442 77.0113 56.7053C77.0113 58.7595 76.9213 60.1351 76.7248 60.8503C76.778 61.7961 76.7964 62.4034 76.7964 62.707C76.7504 63.211 76.6787 63.7122 76.5815 64.2089L76.6531 65.2076C76.6531 66.5302 75.3435 67.4594 72.7059 67.9954C71.9528 67.9954 71.2897 67.4942 70.6964 66.4954C70.4999 65.7271 70.0333 64.1906 69.2619 61.9223L68.1855 58.1339H68.1139C68.0713 58.4897 68.0474 58.8475 68.0423 59.2059V59.4912C68.1323 61.9936 68.1855 63.3692 68.1855 63.6363C68.079 65.6375 67.9523 66.7259 67.8274 66.929C67.1808 67.357 66.5894 67.571 66.0328 67.571C64.365 67.571 63.5219 66.6564 63.5219 64.8564C63.6652 62.8022 63.7368 61.6223 63.7368 61.3552C63.5861 60.4091 63.4904 59.4551 63.4503 58.4979C63.4774 58.1618 63.5253 57.8276 63.5936 57.4973L63.5219 57.0675C63.5661 56.6879 63.59 56.3063 63.5936 55.9242C63.5776 55.3032 63.5297 54.6835 63.4503 54.0675C63.6836 51.4407 63.8819 48.7791 64.0252 46.0645C63.9701 45.0986 63.9536 44.4383 63.9536 44.0633C63.9536 42.867 64.1868 42.2761 64.6699 42.2761C65.0073 42.1229 65.3757 42.0497 65.7463 42.0621C67.6657 42.0621 68.6172 42.2761 68.6172 42.706C68.6888 43.0096 68.9937 43.456 69.5484 44.0633C69.817 44.5899 70.0336 45.1413 70.195 45.7096C70.6799 46.2456 70.9132 47.0139 70.9132 47.9962C71.4863 48.5498 71.7728 49.4078 71.7728 50.5699C72.1493 51.0876 72.4726 52.3022 72.7059 54.2138C72.8491 54.2486 72.9208 54.5175 72.9208 54.9986H72.9924C72.9924 54.6602 73.1192 53.3028 73.3598 50.9266C73.3598 49.6937 73.3781 48.9785 73.4314 48.7828C73.3752 48.4763 73.3512 48.1649 73.3598 47.8535V47.4181C73.3531 47.2012 73.3773 46.9845 73.4314 46.7742C73.382 46.5397 73.358 46.3005 73.3598 46.0608V45.1316C73.4636 44.4441 73.5317 43.7517 73.5637 43.0572V41.5645C73.5637 41.1529 73.9935 40.8859 74.8494 40.7779L75.2168 40.7706ZM72.8418 55.2839V55.498H72.9134V55.2839H72.8418Z" fill="#E2D105"/>
<path d="M89.2021 46.273C89.8728 47.9053 90.2136 49.6533 90.205 51.4169C90.2601 51.4169 90.2784 51.5431 90.2784 51.7828C90.2784 51.8706 90.1884 52.3718 89.9901 53.2828C90.2435 54.6011 90.3666 55.9411 90.3574 57.2833V57.4278C90.3175 58.7688 90.1683 60.1043 89.9111 61.4211C89.9111 62.4034 89.4996 63.5284 88.6915 64.7796C88.4765 65.8333 88.1 66.3509 87.5435 66.3509C87.3102 66.9766 86.8087 67.2802 86.0373 67.2802C85.4318 67.2381 84.8313 67.1426 84.2427 66.9948C83.6548 67.1427 83.0549 67.2382 82.45 67.2802H82.1616C80.9255 67.2802 80.0457 66.4223 79.5075 64.7083C78.9877 63.7607 78.5395 62.2973 78.1446 60.3492C78.1446 60.0108 78.1262 59.8315 78.0729 59.7784L78.2162 58.4193C78.1629 57.6528 78.1446 56.9559 78.1446 56.3486V56.0614C78.1446 53.901 78.2695 52.7687 78.5028 52.7029C78.4598 52.6393 78.4351 52.5653 78.4311 52.4889C78.4311 52.0608 78.646 51.0419 79.0777 49.4175C79.0777 48.7919 79.5607 47.131 80.5122 44.4145C80.9604 43.8786 81.392 43.5749 81.798 43.4853C82.9222 43.058 84.1158 42.841 85.3191 42.845C87.2624 42.845 88.5568 43.9877 89.2021 46.273ZM84.5385 46.4871C84.3401 47.184 84.1252 48.4883 83.8919 50.4163V51.6254C83.8798 51.8115 83.804 51.9878 83.677 52.1248V52.4102C83.677 53.6614 83.6219 54.4462 83.5337 54.7681C83.5786 55.028 83.6026 55.291 83.6054 55.5547V56.2699C83.6054 57.9656 83.8735 60.1809 84.3934 62.9138H84.465C84.8783 62.343 85.2364 61.1467 85.5414 59.3412C85.7373 57.921 85.8337 56.4889 85.8297 55.0553C85.7969 53.8359 85.7006 52.6191 85.5414 51.4096V51.0529C85.5442 50.7892 85.5681 50.5262 85.613 50.2663C85.2364 48.7297 84.8966 47.4621 84.6101 46.4798L84.5385 46.4871Z" fill="#E2D105"/>
<path d="M14.8743 16.7068L14.9496 16.6245C14.979 16.5422 15.0084 16.4654 15.0415 16.3959L14.8743 16.7068Z" fill="#E2D105"/>
<path d="M29.4971 5.97133L29.6007 5.92893C29.5822 5.91418 29.5915 5.8939 29.4971 5.97133Z" fill="#E2D105"/>
<path d="M0.112085 54.79C0.109798 54.8925 0.118418 54.9949 0.1378 55.0955C0.126779 55.0059 0.117595 54.9181 0.112085 54.79Z" fill="#E2D105"/>
<path d="M108.997 61.4083V61.5913C109.002 61.5303 109.002 61.4692 108.997 61.4083Z" fill="#E2D105"/>
<path d="M2.92233 53.0889C2.92233 53.173 2.92233 53.2718 2.92233 53.3468C2.93038 53.261 2.93038 53.1747 2.92233 53.0889Z" fill="#E2D105"/>
<path d="M106.944 70.6186L106.997 70.7434C106.993 70.6498 106.97 70.6168 106.944 70.6186Z" fill="#E2D105"/>
<path d="M15.0415 16.3963L15.1079 16.277C15.0829 16.3151 15.0607 16.355 15.0415 16.3963Z" fill="#E2D105"/>
<path d="M107.289 43.8108C107.302 43.7966 107.311 43.7797 107.317 43.7614C107.274 43.6572 107.225 43.5565 107.181 43.4541C107.225 43.6206 107.265 43.7358 107.289 43.8108Z" fill="#E2D105"/>
<path d="M88.5463 15.097C88.0192 14.5227 87.4443 13.9995 86.8785 13.4617L87.9586 14.2867C88.302 14.5574 88.618 14.8355 88.9339 15.1062L89.8523 15.8891C90.148 16.1434 90.4125 16.4141 90.6825 16.6684C91.7736 17.6708 92.6736 18.6623 93.5645 19.6135L94.83 21.0878L95.1496 21.4537L95.4527 21.8397L96.0698 22.6189L96.709 23.4183C96.9148 23.6982 97.1223 23.9836 97.3372 24.2744C97.7652 24.8579 98.2281 25.4543 98.6671 26.1238L98.4356 25.8512C98.5708 26.0748 98.7231 26.2876 98.8912 26.4878C98.9958 26.6232 99.1208 26.786 99.2732 26.9945C99.4661 27.2475 99.6451 27.5107 99.8096 27.7829C100.012 28.1104 100.245 28.5036 100.519 28.9829C100.654 29.2225 100.811 29.4768 100.956 29.7677L101.417 30.7152C101.58 31.0555 101.755 31.4213 101.942 31.8128C102.126 32.2134 102.287 32.6506 102.477 33.1134L102.763 33.8341L102.914 34.2127C102.961 34.3408 103.004 34.4743 103.05 34.6097C103.228 35.1487 103.419 35.7225 103.621 36.331L103.601 36.3402C103.76 36.6582 103.877 36.9959 103.948 37.3444C103.871 37.0572 103.81 36.7664 103.72 36.4847L103.457 35.6359C103.958 36.6616 104.397 37.7159 104.773 38.7932C104.85 39.0859 104.82 39.203 104.8 39.2395C105.122 40.3536 105.485 41.4584 105.733 42.5944L105.834 43.6645C105.875 43.7907 105.911 43.8932 105.948 43.9828C105.985 44.0724 106.011 44.1474 106.042 44.2169C106.104 44.356 106.167 44.473 106.225 44.6486C106.312 44.9011 106.38 45.1598 106.428 45.4224C106.462 45.6053 106.499 45.8212 106.538 46.0791L106.598 46.5017C106.611 46.6553 106.622 46.82 106.635 46.9992C106.707 45.9017 106.94 48.3876 107.002 48.0254C107.002 48.1718 107.002 48.5011 107.002 48.7663C107.017 48.8724 107.032 48.9821 107.048 49.0992C107.065 49.2163 107.072 49.337 107.083 49.4651C107.107 49.7175 107.133 49.9827 107.159 50.259C107.206 50.8077 107.278 51.3894 107.317 51.9455C107.377 53.0577 107.443 54.0583 107.5 54.4553C107.5 54.4553 107.519 54.0382 107.546 53.3833C107.574 52.7285 107.64 51.8303 107.614 50.8773C107.614 50.3998 107.614 49.9078 107.614 49.4248V49.059C107.614 48.9382 107.603 48.8212 107.598 48.7041C107.587 48.4687 107.576 48.2401 107.564 48.0181C107.52 47.1309 107.513 46.3608 107.473 45.9053C107.576 46.5053 107.59 46.8511 107.62 47.0157C107.649 47.1803 107.647 47.1694 107.645 47.0669C107.645 46.862 107.614 46.2913 107.596 46.0499L107.517 45.8999C107.309 44.4548 107.44 44.4365 107.346 43.7048C107.335 43.7048 107.328 43.7304 107.318 43.7541L107.351 43.8419C107.34 43.9151 107.318 43.8785 107.291 43.8035C107.267 43.8273 107.236 43.7633 107.151 43.3755L107.182 43.4468C107.026 42.856 106.815 41.8243 106.714 41.3743L106.819 41.3377C106.629 40.8304 106.471 40.3117 106.347 39.7847C106.253 39.4188 106.163 39.0091 106.051 38.5774C105.939 38.1456 105.805 37.7011 105.684 37.2493C105.562 36.7975 105.441 36.3347 105.305 35.903C105.169 35.4713 105.024 35.0487 104.899 34.6646L104.554 33.6311C104.442 33.3384 104.341 33.1006 104.267 32.9323C104.146 32.5829 103.999 32.2207 103.834 31.8475L103.575 31.2786C103.487 31.0866 103.377 30.9 103.276 30.7061L102.642 29.528C102.539 29.325 102.434 29.1219 102.33 28.9189L101.999 28.3134C100.559 25.7524 101.413 26.9524 100.713 25.65C99.7691 24.0567 100.807 26.0342 100.399 25.414L99.8647 24.4409C99.681 24.1189 99.4808 23.8098 99.2879 23.4915C100.048 24.5342 99.6975 23.9269 99.5946 23.7092C99.3191 23.3159 99.0142 22.8586 98.7001 22.3884C98.6211 22.2732 98.544 22.1525 98.4632 22.0372L98.2097 21.6952L97.7156 21.0293C97.3905 20.6013 97.0929 20.2025 96.8284 19.9043C96.6457 19.6853 96.4344 19.4915 96.2002 19.3281C95.7943 18.8214 95.4931 18.4354 95.2598 18.1318C95.0265 17.8281 94.8355 17.6196 94.6904 17.4385C94.3947 17.0726 94.2183 16.855 93.8363 16.4489C94.0659 16.747 94.5526 17.3086 94.5251 17.3434C93.8749 16.5239 94.1577 16.9995 94.4406 17.3232C94.2955 17.1879 94.1026 16.9885 93.873 16.7452C93.6434 16.5019 93.39 16.1964 93.0851 15.9056L92.1152 14.9379L91.6156 14.4202C91.4503 14.2373 91.2685 14.0891 91.0958 13.9227L90.0947 12.9788C89.9331 12.8324 89.7788 12.6897 89.6319 12.5544L89.1984 12.1977C88.6474 11.7587 88.269 11.466 88.1661 11.466L88.1937 11.4312C87.7914 11.3489 88.1514 11.8465 87.2183 11.2483L86.6673 10.7562L85.7177 10.1782C85.1427 9.70074 85.4679 9.87269 85.4807 9.8544C85.297 9.72818 85.0895 9.60562 84.8764 9.48855L84.217 9.08245C83.7688 8.80441 83.3133 8.48977 82.8302 8.19526L81.3608 7.31356C81.111 7.16905 80.8722 7.01174 80.6261 6.88003L79.8914 6.4904C80.1981 6.74101 80.5085 6.98064 80.8098 7.24039L81.6914 8.0288L81.0651 7.61539C80.841 7.46905 80.6077 7.30625 80.3579 7.16539C79.8601 6.87271 79.3422 6.56906 78.8609 6.29467C78.4418 6.04981 78.0095 5.82813 77.566 5.63065C77.3396 5.51246 77.0988 5.42392 76.8496 5.36724C76.5337 5.16785 76.2214 4.95931 75.9018 4.76541C75.0698 4.35383 74.4967 4.0959 74.0889 3.93127C73.8832 3.84895 73.7216 3.79042 73.5856 3.74835C73.4738 3.71748 73.3603 3.69244 73.2458 3.67335C72.8414 3.65177 72.4445 3.55498 72.0758 3.38798L71.2217 3.00567C70.937 2.87579 70.6431 2.77518 70.3529 2.65628C70.6486 2.74591 70.9517 2.81726 71.2437 2.91969L72.1236 3.21786C71.6901 3.04957 71.3227 2.89774 70.9902 2.77518L70.0719 2.45323L69.2214 2.14592C68.9312 2.04348 68.6281 1.9136 68.27 1.80934H68.2534C68.3118 1.82142 68.368 1.84174 68.4206 1.8697L68.1653 1.81665C67.9136 1.8697 66.9511 1.68678 65.6746 1.41239C64.7562 1.24044 63.9406 1.1069 62.9837 0.964221C62.5024 0.907514 61.9881 0.839831 61.4114 0.752027C61.1212 0.708125 60.8181 0.658736 60.493 0.603858L59.4533 0.466664L58.6984 0.592881C58.3311 0.548979 57.9637 0.494103 57.5964 0.461176L56.4814 0.377029V0.23069C57.5835 0.23069 59.1558 0.35325 60.8089 0.492273L63.2886 0.788612L65.5662 1.18007L65.6286 1.12337C64.8039 0.978854 63.9204 0.828856 63.1049 0.711783C62.2857 0.62215 61.5381 0.541663 60.9889 0.464834C60.8567 0.441054 60.673 0.40081 60.4856 0.358737C60.2983 0.316664 60.1091 0.285567 59.9677 0.247152C59.6866 0.172153 59.6003 0.102642 60.1036 0.091666L59.0566 0.15569C57.6606 0.0294718 56.6063 0.0422761 55.7247 0.013008C54.843 -0.01626 54.1303 0.013008 53.4103 0.013008L52.3082 0.0239838C51.9225 0.0239838 51.5129 0.0605692 51.0555 0.080691L49.5236 0.15569C48.9524 0.192275 48.3169 0.269103 47.5858 0.338615H48.1001C47.527 0.433736 46.954 0.52154 46.4856 0.592881C46.1566 0.67051 45.8187 0.703735 45.4809 0.691661L44.1767 0.911173L43.8516 0.966049L43.5283 1.03556L42.8873 1.17276C42.035 1.35568 41.1883 1.51117 40.3984 1.72153L39.2339 2.00873L38.6829 2.14226C38.4992 2.18433 38.3265 2.24104 38.152 2.2886C37.4596 2.48433 36.8222 2.65445 36.262 2.79713C36.1224 2.90323 35.9828 3.01116 35.8487 3.12823C35.1544 3.39164 34.0119 3.5581 33.7695 3.91481C33.5252 4.01908 33.2919 4.14712 33.0549 4.26419L32.3459 4.63005C31.8794 4.83309 31.5139 5.01968 31.13 5.20626C30.7059 5.43916 30.2686 5.64743 29.8204 5.83004L29.6165 5.91052C29.6165 5.91052 29.6275 5.91052 29.6348 5.91052C29.1132 6.15564 28.8579 6.27637 28.733 6.36235C28.6081 6.44832 28.6117 6.46296 28.6044 6.48857C28.597 6.51418 28.5401 6.60381 27.3737 7.22027C27.0766 7.33498 26.8078 7.51218 26.5858 7.73978C26.2869 8.04446 25.9484 8.30779 25.5792 8.5227L24.3375 9.02757C23.5779 9.48401 22.8523 9.99448 22.1664 10.555C21.8542 10.8129 21.5309 11.1038 21.1121 11.4696C20.9027 11.6526 20.6713 11.8355 20.4105 12.0513C20.2819 12.1574 20.1404 12.2672 19.9972 12.3879L19.5619 12.7721C18.2761 13.758 17.5414 14.1184 18.2357 13.2751C17.7453 13.8385 17.6589 13.9903 17.501 14.1623C17.343 14.3342 17.1446 14.5409 16.4742 15.2598C16.1895 15.4007 16.3273 15.2434 16.5826 14.894C16.2483 15.1739 16.0315 15.3659 15.8901 15.5068C15.7871 15.6092 15.6942 15.7214 15.6127 15.8415C15.4232 16.1314 15.202 16.3995 14.9533 16.6409C14.8174 17.0397 14.7201 17.5446 14.4372 17.8574L14.8266 17.5299L14.4905 17.9306L14.1598 18.3495C13.9376 18.6312 13.7043 18.9165 13.4637 19.2019C13.2231 19.4873 12.9678 19.769 12.729 20.0671C12.4902 20.3653 12.2294 20.6671 11.9649 20.9671L11.9318 20.8647L11.4212 21.5488L11.1677 21.8891C11.0851 22.0061 11.0079 22.125 10.9271 22.2421L10.7728 22.2622L10.0803 23.2628L9.73317 23.764L9.56051 24.0147L9.39887 24.2726L9.60643 24.0092C9.45582 24.2525 9.13621 24.7756 8.7762 25.3445C8.59252 25.6299 8.40884 25.9262 8.22516 26.2061C8.04148 26.486 7.88719 26.764 7.73841 26.9872L7.70351 26.9232C7.49228 27.2378 7.29207 27.5506 7.09921 27.8616C6.90635 28.1726 6.71716 28.4799 6.54817 28.8C6.21755 29.4366 5.90713 30.0805 5.59487 30.7262C5.28262 31.3719 5.03098 32.078 4.72974 32.7969C4.65627 32.9798 4.57362 33.1628 4.50382 33.3457L4.29259 33.9182L3.83523 35.1182L3.88666 34.639C3.60563 35.1877 3.62032 35.2737 3.63318 35.3963C3.64604 35.5188 3.64604 35.6707 3.38888 36.342L3.21806 36.3566C3.15207 36.8238 3.0139 37.2779 2.80846 37.703C2.72948 37.8658 2.64498 38.0158 2.55682 38.1749C2.4669 38.3491 2.38658 38.528 2.3162 38.7109L2.62662 38.378L2.13252 39.9475C2.04045 40.2471 1.93191 40.5414 1.8074 40.8292C1.73761 41.0029 1.68801 41.067 1.65128 41.067C1.58148 41.067 1.5576 40.8127 1.54291 40.67C1.49331 41.0853 1.45841 41.5023 1.41617 41.9176L1.18473 42.1115C1.19254 42.4456 1.1422 42.7786 1.03595 43.0956C0.886743 43.5762 0.79247 44.072 0.754922 44.5737C0.66492 44.6889 0.696145 44.2865 0.571243 44.8133L0.459199 46.1066L0.420626 47.4236L0.464709 46.6334C0.479403 46.37 0.488587 46.1047 0.521649 45.8432L0.751248 46.0736C0.748922 46.6981 0.691765 47.3212 0.580428 47.9358C0.47156 48.4301 0.410057 48.9336 0.396748 49.4395C0.396748 49.1706 0.37838 48.8998 0.396748 48.6309C0.371033 48.8669 0.365522 49.0791 0.352664 49.2657C0.339807 49.4523 0.32695 49.6169 0.317766 49.7632C0.292051 50.0578 0.264498 50.2809 0.235109 50.4803C0.180006 50.8754 0.110207 51.1663 0.05143 51.7041C0.119391 51.3712 0.23511 50.8681 0.211232 51.6401C0.211232 52.2071 0.108371 51.9419 0.0661247 52.4779C0.152454 52.5455 0.211231 52.9224 0.233272 53.4346C0.244293 53.6907 0.24613 53.9833 0.233272 54.2852C0.220415 54.587 0.233273 54.9071 0.216742 55.2181C0.191027 55.2016 0.167148 55.176 0.14878 55.0955C0.208242 55.4354 0.227355 55.7811 0.205721 56.1254L0 55.8053L0.214905 56.8607C0.206615 57.2353 0.231199 57.6099 0.288377 57.9802C0.325112 58.3132 0.345317 58.5473 0.275519 58.5052L0.205721 58.1065C0.303071 59.8918 0.499608 61.6717 0.77329 63.4406L0.63002 63.5394C0.784311 63.7845 0.892682 64.507 0.997379 65.1436C1.03414 65.4182 1.09123 65.6896 1.1682 65.9558C1.22698 66.1552 1.28576 66.2631 1.35188 66.2046C1.39104 66.5502 1.4524 66.893 1.53556 67.2308C1.63107 67.6314 1.71924 68.0704 1.84414 68.4509C2.06823 69.2137 2.2115 69.7899 1.98925 69.5485C2.10864 69.9747 2.22436 70.3753 2.34008 70.7576C2.45579 71.1399 2.60457 71.4893 2.73315 71.8405L3.12255 72.8649C3.18684 73.0332 3.24745 73.2015 3.31909 73.3679L3.53767 73.8655L4.45606 75.9948C4.63974 76.3734 4.8124 76.7758 5.0071 77.2057L5.29548 77.8734C5.34507 77.9886 5.39283 78.1075 5.44609 78.2264C5.49936 78.3453 5.55814 78.4624 5.61692 78.5831C6.04722 79.7731 6.59352 80.9182 7.24799 82.002C7.44636 82.3477 7.64106 82.7045 7.85413 83.052L8.51538 84.0819L9.15458 85.077C9.36765 85.3953 9.58807 85.6916 9.78277 85.977C11.1979 87.9043 12.738 89.7374 14.3931 91.4648L15.5852 92.6593C15.7872 92.8587 15.9838 93.0672 16.1968 93.2629L16.8452 93.8556C17.2861 94.2525 17.7251 94.6751 18.2063 95.0867L19.7253 96.3562C20.0263 96.6758 20.3465 96.977 20.6841 97.258C21.0331 97.558 21.4042 97.8635 21.7862 98.1726C21.9699 98.33 22.1811 98.4763 22.3905 98.6208L23.0205 99.058C23.4467 99.347 23.8765 99.647 24.3192 99.9305L25.6674 100.746L26.3341 101.152C26.5545 101.29 26.7841 101.405 27.0045 101.533C27.8991 102.023 28.7293 102.541 29.5099 102.974L30.4467 103.291C30.6983 103.448 30.9665 103.618 31.2622 103.772C31.558 103.926 31.8739 104.074 32.2027 104.226C32.8621 104.529 33.5674 104.862 34.3297 105.14C35.834 105.742 37.4779 106.295 39.0411 106.889C39.8456 107.052 40.2607 107.149 40.4462 107.196C40.3011 107.149 40.088 107.059 40.0439 106.951C40.268 107.032 40.5527 107.12 40.8503 107.209C41.0009 107.251 41.1515 107.301 41.304 107.339L41.7467 107.447C42.3106 107.588 42.7404 107.714 42.6522 107.787L42.4134 107.751C42.3234 107.824 43.0342 107.966 43.8828 108.135C44.748 108.265 45.7582 108.416 46.2707 108.587L45.7288 108.294L46.6123 108.466L47.5032 108.596L47.0201 108.572L48.4363 108.682C48.8918 108.716 49.3308 108.77 49.7606 108.779C50.6184 108.817 51.4229 108.87 52.1925 108.918C52.964 108.932 53.6987 108.954 54.415 108.98L54.9477 109H55.4767H56.5218C59.288 108.963 62.0322 108.817 65.5938 107.902C65.1364 108.085 65.4854 108.001 65.9611 107.89C66.4368 107.778 67.0448 107.591 67.1165 107.694C67.5648 107.665 68.0104 107.604 68.45 107.511C68.8591 107.413 69.261 107.288 69.6531 107.136C70.4208 106.849 71.1409 106.56 71.8407 106.265C71.8407 106.254 71.8499 106.236 71.927 106.19L73.1834 105.782C73.3928 105.713 73.604 105.651 73.8097 105.574L74.4287 105.338C73.064 106.19 76.1112 104.423 74.853 105.179C78.4753 103.866 81.9233 102.118 85.1207 99.9744C85.5597 99.7056 85.9711 99.3946 86.3936 99.0964L87.6592 98.1818L88.8843 97.2178C89.2884 96.8922 89.709 96.5867 90.0929 96.2391L91.2685 95.2257C91.4521 95.0537 91.6634 94.8946 91.847 94.7153L92.3981 94.1885L93.5112 93.144C93.8785 92.791 94.2183 92.4251 94.571 92.0702L94.2735 92.2715C94.6261 91.9056 94.9935 91.5196 95.3663 91.1227C95.7392 90.7257 96.079 90.2922 96.428 89.8843C97.1444 89.0849 97.7523 88.2782 98.2795 87.7166C98.7974 87.1358 99.2472 86.4981 99.6204 85.816C99.804 85.5032 99.9657 85.2142 100.102 84.9709C100.238 84.7276 100.335 84.5227 100.414 84.3983C100.755 83.7716 101.146 83.1728 101.582 82.6075C101.872 82.1978 102.027 82.0587 101.841 82.3624C102.056 81.9691 102.258 81.5758 102.456 81.1734C102.655 80.7709 102.864 80.363 103.048 79.9203C103.231 79.4776 103.448 79.0295 103.683 78.5502C103.797 78.3088 103.935 78.0673 104.051 77.8057C104.166 77.5441 104.302 77.2807 104.444 77.0027C104.705 76.6064 104.923 76.1839 105.096 75.7423C105.351 75.1149 105.617 74.3356 105.886 73.5856C105.952 73.4027 106.023 73.2198 106.08 73.0277C106.137 72.8356 106.191 72.6618 106.244 72.4789C106.352 72.1295 106.453 71.8058 106.545 71.5332C106.729 70.9844 106.872 70.6277 106.945 70.6314L106.931 70.5984C107.197 69.8485 107.427 69.0985 107.64 68.3466C107.756 67.9808 107.823 67.5875 107.91 67.2052C107.996 66.8229 108.07 66.4387 108.15 66.0546C108.189 65.8607 108.229 65.6686 108.27 65.4747C108.31 65.2808 108.334 65.0832 108.367 64.8857C108.432 64.4942 108.498 64.0979 108.566 63.6967C108.6 63.4973 108.637 63.2979 108.674 63.0948C108.711 62.8918 108.751 62.6906 108.779 62.4857C108.839 62.0741 108.907 61.6589 108.983 61.2363C108.992 61.2968 108.998 61.358 108.999 61.4193C109.012 59.0962 108.88 56.7746 108.602 54.4681C108.274 55.1193 107.944 55.7589 107.612 56.387L107.498 57.1187C107.454 57.3601 107.399 57.5998 107.35 57.8394L107.048 59.2735C106.958 59.751 106.826 60.2211 106.701 60.6912L106.334 62.0979C105.965 64.6751 105.412 67.223 104.681 69.7222C103.922 72.2175 102.991 74.6574 101.894 77.0246C99.9753 80.7158 97.633 84.173 94.9145 87.327C93.2932 89.2579 91.5464 91.0808 89.6851 92.7836C87.8026 94.4709 85.8076 96.0294 83.7137 97.4482L82.1194 98.4726C81.8567 98.6556 81.5794 98.8037 81.3057 98.9611L80.4846 99.4348L79.6636 99.9104L78.8187 100.344L77.9719 100.783C77.689 100.927 77.4209 101.079 77.1196 101.204L75.393 101.988C75.1065 102.126 74.8089 102.232 74.5151 102.354L73.6334 102.704L72.7499 103.053L71.8517 103.359L70.9517 103.666C70.6523 103.766 70.3547 103.876 70.048 103.957L68.0128 104.752C65.0629 105.316 61.7016 105.907 58.2337 106.145C54.7659 106.382 51.2117 106.289 48.0377 105.731L47.8815 105.894C47.4297 105.837 47.0972 105.801 46.8511 105.746C46.605 105.691 46.4415 105.649 46.3203 105.612C46.076 105.537 46.0025 105.486 45.7839 105.429L45.0033 105.294C44.7425 105.245 44.4798 105.212 44.2245 105.146L42.6761 104.796L41.9009 104.613L41.135 104.399L39.6013 103.973C39.0925 103.821 38.5929 103.644 38.0878 103.479C37.5826 103.315 37.0739 103.161 36.5834 102.956C35.5934 102.57 34.5942 102.21 33.6317 101.758C33.1486 101.54 32.6564 101.337 32.1806 101.105L30.759 100.392C30.522 100.271 30.2851 100.156 30.05 100.026L29.3593 99.6342L27.9762 98.8549C26.1725 97.7697 24.4343 96.5798 22.7707 95.2916C21.1269 94.0194 19.5598 92.6518 18.0777 91.1959L17.0087 90.0855C16.6542 89.7196 16.2924 89.3538 15.9654 88.9605C15.2968 88.1886 14.6172 87.4349 14.0092 86.6282C13.7006 86.2294 13.3847 85.838 13.0908 85.4392L12.2147 84.2282L11.7849 83.6191C11.6379 83.4179 11.5149 83.202 11.3789 82.9953L10.5891 81.7478C10.3154 81.3398 10.0913 80.9045 9.8544 80.4837C9.61745 80.063 9.37867 79.6368 9.13989 79.2161L8.49517 77.9264L8.17741 77.2862L8.01761 76.9661C7.96801 76.86 7.92209 76.7484 7.87434 76.6405C7.63372 75.9454 7.00002 74.6137 6.51327 73.2618L6.13306 72.274C6.02836 71.9503 5.92917 71.6393 5.83549 71.3594C5.65181 70.7887 5.51589 70.3167 5.45528 70.0369C5.3965 69.8942 5.34507 69.7497 5.29731 69.6033L5.15404 69.1625C5.05608 68.8686 4.95996 68.5735 4.86567 68.2771C4.77015 67.9808 4.68199 67.6826 4.58096 67.3844L4.34402 66.4698C4.26687 66.1662 4.18789 65.8607 4.11074 65.5552C4.0336 65.2497 3.94543 64.9442 3.89217 64.6314C3.77278 64.0113 3.65338 63.3875 3.52481 62.7656C3.49726 62.6101 3.46419 62.4546 3.44032 62.2973L3.37786 61.8272L3.25112 60.8851C3.21072 60.5705 3.17031 60.2558 3.12806 59.943C3.08581 59.6302 3.07479 59.3138 3.04724 59.001C2.99948 58.3717 2.95356 57.7461 2.90581 57.1223C2.89295 56.4986 2.88009 55.8766 2.86724 55.2601L2.89111 55.4431C2.88009 55.0571 2.8507 54.6693 2.85438 54.2815L2.8654 53.1199C2.88377 53.0211 2.90581 53.0102 2.91683 53.0852C2.90581 52.7577 2.89846 52.4065 2.89662 52.0352C2.89662 51.8522 2.89662 51.6602 2.91499 51.4663C2.93336 51.2724 2.94071 51.0748 2.95173 50.8736C3.01418 50.0706 3.05643 49.2071 3.20153 48.3382C3.34664 47.4694 3.44031 46.5749 3.63869 45.7169C3.83706 44.859 3.96931 44.0102 4.18973 43.2383L4.16585 43.4212C4.29993 42.8523 4.43035 42.2853 4.5626 41.72C4.69484 41.1548 4.87669 40.6023 5.03098 40.0444L5.26793 39.2103C5.34691 38.9322 5.4516 38.6615 5.53793 38.3871C5.72161 37.8383 5.90529 37.2896 6.08897 36.7518C6.27265 36.214 6.50593 35.6816 6.71348 35.1475L7.02574 34.3481L7.37657 33.5652L8.07822 32.0048C8.33537 31.4963 8.59313 30.989 8.85151 30.4829C8.98192 30.2305 9.10499 29.9744 9.23907 29.7238L9.66154 28.9921C9.9444 28.5 10.2126 28.0043 10.5083 27.5177L11.4267 26.0854C11.581 25.8476 11.7224 25.6024 11.8877 25.372L12.3763 24.6805C13.667 22.8277 15.0783 21.0611 16.6009 19.3921C17.3797 18.5763 18.1383 17.7458 18.9704 16.9757L19.5802 16.3903L19.887 16.0976C19.9917 16.0025 20.1 15.9147 20.2047 15.8178L21.4905 14.7074C23.2242 13.2477 25.0568 11.9086 26.9752 10.6995C27.9211 10.0666 28.9277 9.53062 29.914 8.95989C30.4136 8.68367 30.9316 8.44038 31.4404 8.1788L32.2082 7.791C32.4635 7.66112 32.7298 7.55502 32.9907 7.43612L34.5685 6.73918C35.103 6.52333 35.6448 6.32577 36.183 6.11723L36.993 5.80809C37.2667 5.71297 37.5441 5.62516 37.8178 5.53736L39.4709 5.00321L41.0523 4.59895L41.855 4.39041C42.125 4.32639 42.4061 4.27517 42.6742 4.20749L44.3273 3.84164C44.8784 3.73371 45.4533 3.64591 46.0209 3.54347L46.8787 3.39347C47.1652 3.34225 47.4554 3.31664 47.7456 3.2764L49.5016 3.06238C50.0912 3.00384 50.6863 2.9636 51.2815 2.91238L52.1796 2.83738C52.479 2.82091 52.7821 2.81726 53.0833 2.80628L54.9036 2.74591L56.7404 2.78067C57.0471 2.78067 57.3539 2.78067 57.6588 2.80262L58.5772 2.86847C59.1907 2.91786 59.8078 2.94896 60.4232 3.01482C61.6483 3.17579 62.8826 3.3075 64.0968 3.56359C65.3219 3.76664 66.5213 4.09225 67.7208 4.3959C67.9375 4.46358 68.4224 4.63188 69.1167 4.83858L70.3015 5.1898L71.7268 5.68187C72.7572 6.00747 73.8777 6.4904 75.0826 6.96235L76.89 7.77271L77.3511 7.97941L77.8048 8.20807L78.7232 8.66721L79.6324 9.12818L80.514 9.62757L81.3847 10.1178L81.8126 10.3611L82.2259 10.6209L83.8111 11.616C84.3088 11.9507 84.7772 12.2836 85.2199 12.5891L85.8609 13.0318C86.0667 13.1763 86.2522 13.3282 86.4359 13.4653L87.4167 14.2099C87.9916 14.6269 88.3682 14.9635 88.5463 15.097Z" fill="#E2D105"/>
<path d="M104.789 39.2493L104.767 39.1755C104.699 39.2013 104.758 39.3046 104.789 39.2493Z" fill="#E2D105"/>
<path d="M79.7591 6.42637L79.8804 6.4904L79.4726 6.1593L79.7591 6.42637Z" fill="#E2D105"/>
<path d="M100.234 24.6329C100.048 24.3169 99.8444 24.0116 99.6241 23.7183C99.534 23.6012 99.5414 23.6323 99.5781 23.7183C99.7067 23.9012 99.8298 24.075 99.9455 24.2268C100.061 24.3787 100.148 24.5213 100.234 24.6329Z" fill="#E2D105"/>
<path d="M106.901 48.7663C106.975 49.3901 106.99 49.1486 106.995 48.7754L106.843 47.698C106.868 48.051 106.874 48.4041 106.901 48.7663Z" fill="#E2D105"/>
<path d="M107.594 46.0609L107.691 46.2438C107.61 45.8798 107.59 45.8981 107.594 46.0609Z" fill="#E2D105"/>
<path d="M7.65026 40.6682C7.9166 39.7426 8.70275 39.2853 9.63768 39.5505C10.5726 39.8158 10.9785 40.6481 10.703 41.6139L10.4918 42.3456L11.7665 42.7115L11.4506 43.809L7.10474 42.5688L7.65026 40.6682ZM9.66156 42.1133L9.80483 41.6139C9.93891 41.1475 9.7736 40.8017 9.31991 40.6718C8.86622 40.542 8.54478 40.7487 8.41254 41.2115L8.26743 41.7145L9.66156 42.1133Z" fill="#E2D105"/>
<path d="M13.5262 37.5494L9.36398 35.786L9.814 34.7323L13.9762 36.4957L13.5262 37.5494Z" fill="#E2D105"/>
<path d="M14.6687 33.3329L13.2874 30.0604L13.269 30.0494L12.2147 31.8695L11.412 31.4067L13.1515 28.4196L13.7833 28.7854L15.1536 32.0525L15.172 32.0634L16.274 30.161L17.0749 30.6238L15.3005 33.6988L14.6687 33.3329Z" fill="#E2D105"/>
<path d="M18.2118 27.6951L17.3247 24.2579L17.3081 24.2451L15.993 25.8914L15.2675 25.317L17.4239 22.6152L17.9951 23.0689L18.8859 26.4969L18.9043 26.5115L20.2782 24.7902L21.0038 25.3646L18.7831 28.1451L18.2118 27.6951Z" fill="#E2D105"/>
<path d="M25.3643 20.9964L23.1087 23.1129L20.0064 19.8367L22.262 17.7184L22.8993 18.3916L21.4795 19.7232L22.0967 20.3745L23.4302 19.1214L24.0106 19.7361L22.6844 20.9873L23.3163 21.6549L24.7343 20.3232L25.3643 20.9964Z" fill="#E2D105"/>
<path d="M28.722 18.3513L27.7815 19.0098L25.1806 15.3257L26.7695 14.2135C27.6879 13.5678 28.5107 13.6739 29.0489 14.4349C29.2101 14.6446 29.3058 14.8968 29.3241 15.1603C29.3424 15.4238 29.2824 15.6868 29.1518 15.9166L30.8986 16.8312L29.8424 17.5629L28.2995 16.7178L27.8109 17.058L28.722 18.3513ZM27.3591 16.4214L27.9101 16.0318C28.2554 15.7885 28.3197 15.4446 28.0938 15.1172C28.0455 15.0444 27.9824 14.9825 27.9086 14.9356C27.8348 14.8887 27.7519 14.8577 27.6653 14.8448C27.5787 14.8319 27.4903 14.8372 27.4059 14.8605C27.3215 14.8838 27.243 14.9245 27.1754 14.98L26.6244 15.3678L27.3591 16.4214Z" fill="#E2D105"/>
<path d="M31.2843 11.0306L31.468 9.81962L32.335 9.3623L32.0356 10.6428L31.2843 11.0306ZM33.4573 15.3714L31.3358 11.3946L32.3515 10.8568L34.473 14.8336L33.4573 15.3714Z" fill="#E2D105"/>
<path d="M39.4984 11.5776L38.1134 12.0971L38.1943 13.1233L37.0922 13.5349L36.9195 8.77881L38.2365 8.28491L41.2525 11.9635L40.1082 12.3934L39.4984 11.5776ZM38.029 11.2483L38.9933 10.8825L37.9096 9.43551H37.8857L38.029 11.2483Z" fill="#E2D105"/>
<path d="M47.8209 10.4289L47.3084 5.95268L48.2268 5.85024L50.431 8.22827H50.4549L50.1573 5.62707L51.241 5.50269L51.7553 9.97887L50.8516 10.0813L48.6346 7.67218H48.6089L48.9101 10.299L47.8209 10.4289Z" fill="#E2D105"/>
<path d="M57.6239 9.00381L56.1453 8.95808L55.8257 9.93673L54.6538 9.90015L56.3161 5.43677L57.7231 5.4825L59.0989 10.0319L57.8774 9.99344L57.6239 9.00381ZM56.3933 8.1404L57.4237 8.17333L56.9792 6.42274H56.9535L56.3933 8.1404Z" fill="#E2D105"/>
<path d="M64.7966 6.40258C65.7463 6.5855 66.2661 7.33367 66.0824 8.28122C65.8987 9.22877 65.0942 9.70621 64.1079 9.51231L63.3603 9.36597L63.1031 10.6611L61.9753 10.4379L62.8515 6.02026L64.7966 6.40258ZM63.5256 8.52085L64.0362 8.62146C64.5156 8.71475 64.8481 8.52268 64.9399 8.05988C65.0318 7.59708 64.7967 7.29708 64.3246 7.20379L63.8066 7.10318L63.5256 8.52085Z" fill="#E2D105"/>
<path d="M73.2422 11.2996C72.7444 12.6478 71.6258 13.1892 70.34 12.7191C69.0543 12.249 68.551 11.1148 69.0543 9.76667C69.5575 8.41851 70.6743 7.87522 71.9601 8.34534C73.2458 8.81546 73.7473 9.95326 73.2422 11.2996ZM70.149 10.1691C69.8533 10.9722 70.0572 11.6325 70.6633 11.8465C71.2694 12.0606 71.848 11.702 72.1438 10.899C72.4395 10.0959 72.2356 9.43558 71.6331 9.2179C71.0307 9.00022 70.441 9.36973 70.149 10.1691Z" fill="#E2D105"/>
<path d="M77.847 16.1727L75.2021 14.7239L77.3787 10.7782L78.3871 11.327L76.655 14.4623L78.2952 15.3587L77.847 16.1727Z" fill="#E2D105"/>
<path d="M82.8669 19.6447L80.3799 17.8008L83.0818 14.188L85.567 16.03L85.016 16.7727L83.451 15.613L82.9147 16.3319L84.3841 17.4294L83.879 18.1044L82.4096 17.0069L81.8585 17.7386L83.4216 18.8983L82.8669 19.6447Z" fill="#E2D105"/>
<path d="M85.9932 22.4159L88.5225 19.8732L87.6317 18.9952L88.2856 18.3385L90.8828 20.8995L90.2307 21.5562L89.3399 20.6781L86.8106 23.2208L85.9932 22.4159Z" fill="#E2D105"/>
<path d="M91.6965 27.3988L90.7983 26.228L89.834 26.5939L89.1213 25.6665L93.638 24.1335L94.4939 25.2457L91.8232 29.1841L91.0885 28.2183L91.6965 27.3988ZM91.5918 25.9024L92.2181 26.7201L93.2982 25.2677L93.2816 25.2476L91.5918 25.9024Z" fill="#E2D105"/>
<path d="M93.3826 31.6335L97.3647 29.4915L97.8001 30.2963L96.3949 33.2231L96.4059 33.2451L98.7221 32.0012L99.2383 32.9579L95.2579 35.0945L94.8263 34.2987L96.248 31.3536L96.2369 31.3317L93.8987 32.5866L93.3826 31.6335Z" fill="#E2D105"/>
<path d="M98.3493 40.1743L97.8625 38.7823L96.8303 38.8371L96.4445 37.7396L101.22 37.6865L101.683 39.0091L97.914 41.9213L97.5117 40.7707L98.3493 40.1743ZM98.7167 38.7219L99.0546 39.6896L100.535 38.6487V38.6249L98.7167 38.7219Z" fill="#E2D105"/>
<path d="M101.382 70.7612C101.066 71.6759 100.256 72.0875 99.3375 71.771C98.4191 71.4545 98.0518 70.6003 98.3842 69.6545L98.634 68.9375L97.3813 68.5058L97.7487 67.4229L102.023 68.8863L101.382 70.7612ZM99.4514 69.2192L99.2806 69.7076C99.1226 70.1686 99.2677 70.5216 99.7141 70.6753C100.16 70.8289 100.493 70.6405 100.651 70.185L100.822 69.6893L99.4514 69.2192Z" fill="#E2D105"/>
<path d="M95.3425 73.5619L99.4018 75.5448L98.8948 76.5728L94.8355 74.5899L95.3425 73.5619Z" fill="#E2D105"/>
<path d="M93.9741 77.7124L95.1772 81.0526L95.1937 81.0636L96.3509 79.3002L97.1279 79.8069L95.2378 82.6953L94.6262 82.2965L93.4175 78.9654L93.3992 78.9526L92.1924 80.7947L91.4154 80.2898L93.368 77.3154L93.9741 77.7124Z" fill="#E2D105"/>
<path d="M90.1296 83.1527L90.8295 86.6283L90.846 86.6429L92.2493 85.0679L92.9436 85.6807L90.6458 88.2655L90.0947 87.7844L89.3894 84.3088L89.3729 84.2942L87.9035 85.9405L87.2091 85.3277L89.5768 82.668L90.1296 83.1527Z" fill="#E2D105"/>
<path d="M82.6264 89.4617L84.9922 87.4659L87.9164 90.905L85.5506 92.9007L84.9518 92.1946L86.4396 90.9397L85.8573 90.2556L84.4577 91.4373L83.9066 90.7934L85.3063 89.6135L84.7112 88.9129L83.2234 90.1678L82.6264 89.4617Z" fill="#E2D105"/>
<path d="M79.1346 91.9203L80.11 91.313L82.4978 95.1325L80.8447 96.1587C79.8877 96.7532 79.0759 96.6032 78.5818 95.813C78.4319 95.595 78.3497 95.338 78.3455 95.0739C78.3412 94.8097 78.4151 94.5502 78.5579 94.3276L76.8699 93.3325L77.9719 92.652L79.4671 93.5794L79.9722 93.2648L79.1346 91.9203ZM80.3892 93.9215L79.8124 94.2874C79.4542 94.5105 79.3716 94.8508 79.5791 95.1819C79.6236 95.2582 79.6838 95.3242 79.7558 95.3756C79.8279 95.4269 79.91 95.4624 79.9969 95.4797C80.0837 95.497 80.1733 95.4957 80.2596 95.4759C80.3459 95.4561 80.427 95.4182 80.4975 95.3648L81.0724 94.9989L80.3892 93.9215Z" fill="#E2D105"/>
<path d="M74.2414 94.6459L76.1462 98.7324L75.1029 99.2153L73.1963 95.1288L74.2414 94.6459ZM76.1792 99.1001L75.9368 100.3L75.0459 100.712L75.4133 99.4532L76.1792 99.1001Z" fill="#E2D105"/>
<path d="M68.0037 98.105L69.4143 97.6623L69.3904 96.6325L70.5072 96.2812L70.4191 101.037L69.0764 101.46L66.2679 97.6184L67.4324 97.2526L68.0037 98.105ZM69.4511 98.5148L68.4665 98.8203L69.4694 100.326H69.4933L69.4511 98.5148Z" fill="#E2D105"/>
<path d="M59.6352 98.8055L59.9089 103.302L58.9905 103.357L56.9168 100.858H56.8929L57.0509 103.472L55.9617 103.538L55.688 99.0415L56.5954 98.9866L58.6856 101.513H58.7095L58.5497 98.8732L59.6352 98.8055Z" fill="#E2D105"/>
<path d="M49.7624 99.711L51.2318 99.8519L51.6139 98.8952L52.7803 99.0068L50.8333 103.344L49.4336 103.21L48.3536 98.5806L49.5714 98.6976L49.7624 99.711ZM50.9343 100.649L49.9075 100.551L50.24 102.325H50.2657L50.9343 100.649Z" fill="#E2D105"/>
<path d="M42.4612 101.93C41.5226 101.692 41.0395 100.922 41.2801 99.9837C41.5208 99.0452 42.3455 98.6135 43.3208 98.8623L44.0555 99.0452L44.3825 97.7648L45.4974 98.0465L44.3806 102.413L42.4612 101.93ZM43.8461 99.8849L43.341 99.7568C42.8671 99.6361 42.5255 99.8099 42.4079 100.267C42.2904 100.725 42.509 101.037 42.9755 101.156L43.4861 101.286L43.8461 99.8849Z" fill="#E2D105"/>
<path d="M34.3003 96.5794C34.8697 95.2605 36.014 94.7794 37.2722 95.319C38.5304 95.8587 38.9712 97.0166 38.4018 98.3355C37.8324 99.6544 36.6826 100.137 35.4244 99.5977C34.1662 99.058 33.7309 97.9056 34.3003 96.5794ZM37.3255 97.8745C37.6634 97.0898 37.4963 96.4257 36.903 96.1733C36.3097 95.9209 35.7128 96.2538 35.373 97.0385C35.0332 97.8233 35.204 98.491 35.7936 98.7434C36.3832 98.9958 36.9838 98.6629 37.3255 97.8745Z" fill="#E2D105"/>
<path d="M29.9637 91.4647L32.5352 93.0543L30.1474 96.8775L29.172 96.272L31.0713 93.2336L29.4806 92.2495L29.9637 91.4647Z" fill="#E2D105"/>
<path d="M25.1366 87.7313L27.5244 89.7051L24.6315 93.166L22.2436 91.1923L22.8369 90.4825L24.3357 91.7246L24.9106 91.0349L23.5018 89.8679L24.0418 89.2203L25.4525 90.3874L26.0403 89.6813L24.5414 88.4411L25.1366 87.7313Z" fill="#E2D105"/>
<path d="M22.1628 84.7935L19.4976 87.1989L20.3407 88.1246L19.6519 88.7447L17.1961 86.0447L17.8831 85.4246L18.7243 86.3502L21.3987 83.9447L22.1628 84.7935Z" fill="#E2D105"/>
<path d="M16.7332 79.5142L17.5671 80.7307L18.5498 80.4105L19.2111 81.3746L14.6191 82.655L13.8256 81.4971L16.702 77.7087L17.3908 78.713L16.7332 79.5142ZM16.759 81.0124L16.1767 80.1618L15.0213 81.552L15.036 81.5721L16.759 81.0124Z" fill="#E2D105"/>
<path d="M15.2803 75.2009L11.1916 77.1216L10.8003 76.2966L12.3598 73.4521L12.3488 73.4283L9.97011 74.546L9.5054 73.5637L13.5941 71.6429L13.9817 72.4606L12.3984 75.3234L12.4094 75.3472L14.8101 74.2185L15.2803 75.2009Z" fill="#E2D105"/>
<path d="M10.7838 66.4058L11.1934 67.8216H12.2276L12.5527 68.9429L7.78802 68.7362L7.39862 67.3899L11.3202 64.6881L11.66 65.857L10.7838 66.4058ZM10.3375 67.8362L10.0528 66.8503L8.51723 67.8106V67.8344L10.3375 67.8362Z" fill="#E2D105"/>
<path d="M102.86 55.9242C103.672 55.9242 104.33 55.2691 104.33 54.4608C104.33 53.6526 103.672 52.9974 102.86 52.9974C102.049 52.9974 101.391 53.6526 101.391 54.4608C101.391 55.2691 102.049 55.9242 102.86 55.9242Z" fill="#E2D105"/>
<path d="M7.71455 56.1071C8.5261 56.1071 9.18399 55.4519 9.18399 54.6437C9.18399 53.8355 8.5261 53.1803 7.71455 53.1803C6.90301 53.1803 6.24512 53.8355 6.24512 54.6437C6.24512 55.4519 6.90301 56.1071 7.71455 56.1071Z" fill="#E2D105"/>
</svg>
