<svg width="181" height="180" viewBox="0 0 181 180" fill="none" xmlns="http://www.w3.org/2000/svg">
<path d="M42.6808 68.4182L43.3936 68.3004H43.7485C45.1408 68.3004 46.9759 69.3335 49.2084 71.3695C50.2458 73.417 50.7743 75.6827 50.7492 77.976C50.7492 80.9263 50.0415 84.5844 48.626 88.9505L47.44 90.2494C47.4314 90.9616 47.2211 91.6568 46.8333 92.2552C49.2326 92.8443 50.8888 93.82 51.8078 95.2065C53.0446 95.8457 54.1033 96.7797 54.8896 97.9252C55.5994 99.0762 55.9543 100.756 55.9543 103V103.236C55.9543 105.181 55.5691 106.559 54.7713 107.365C54.7713 108.93 53.467 110.788 50.8615 112.911L48.4895 113.383C48.4895 113.685 47.8828 113.987 46.5937 114.328C46.3874 114.328 45.8263 114.12 44.9376 113.724C42.8931 114.199 41.4706 114.436 40.6698 114.434C38.774 114.343 37.8276 113.902 37.8276 113.135C36.8782 112.014 36.4051 108.622 36.4051 102.988C35.924 99.4665 35.6475 95.9203 35.577 92.367C35.2377 90.7786 35.078 89.1575 35.1008 87.5337C35.2494 86.0898 35.3677 83.5523 35.4587 79.8639C35.3101 78.9215 35.1918 77.8884 35.1008 76.7978C35.1008 76.3266 35.2191 74.8796 35.4587 72.4298L35.3374 70.5418C35.6023 68.6548 36.5496 67.7113 38.1795 67.7113C38.6951 67.704 39.2097 67.6647 39.7204 67.5935L42.6808 68.4182ZM43.6302 73.4931L44.5766 82.5796H44.6949C45.0312 81.0258 45.2342 79.4463 45.3015 77.8581V77.7403C45.3015 75.3509 44.7374 73.8767 43.6424 73.2575L43.6302 73.4931ZM45.8809 97.5658C45.8251 97.7984 45.7856 98.0346 45.7626 98.2726C46.1532 101.207 46.3508 104.164 46.3541 107.124V107.241H46.4724C47.7463 105.429 48.3681 103.879 48.3681 102.52C48.3681 101.106 47.5704 99.484 45.9992 97.6866V97.5688L45.8809 97.5658Z" fill="white"/>
<path d="M71.8878 67.5331C73.2801 68.8924 74.2871 71.7229 74.9696 76.0305C75.0576 77.4171 75.0879 78.2418 75.0879 78.5076C74.4661 84.6428 73.9019 87.7119 73.4287 87.7119C73.4287 88.008 72.8362 88.9525 71.6512 90.5454C70.7211 91.2616 69.8499 92.0505 69.0457 92.9047L68.9274 93.1403C70.9718 95.4693 72.2427 97.5657 72.7189 99.3933C72.7189 99.8948 73.3104 101.251 74.4964 103.405C74.4964 103.707 75.2365 106.033 76.7471 110.368C76.9041 111.025 76.9835 111.698 76.9837 112.374V112.742C76.9837 113.836 76.5984 114.482 75.7977 114.748C74.9457 115.015 74.0747 115.216 73.1921 115.352C71.4328 115.325 70.2195 114.253 69.5189 112.138C68.8661 110.464 68.0737 108.847 67.1499 107.305C66.704 105.39 66.2005 103.943 65.609 102.94C65.4239 102.569 65.3038 102.17 65.2541 101.759H65.1358C65.1358 102.085 65.0448 102.91 64.8992 104.239C64.9265 105.181 65.0175 105.655 65.1358 105.655C64.9422 106.265 64.862 106.905 64.8992 107.543V109.785C64.8943 110.141 64.8546 110.496 64.7809 110.845C65.0825 111.597 65.2429 112.398 65.2541 113.207C65.2541 114.092 64.2774 114.651 62.2906 114.857C60.5132 114.857 59.4758 114.503 59.2119 113.796C58.1139 110.108 57.5527 105.094 57.5527 98.6925L56.9461 91.8474L57.1857 89.7328C57.0331 88.7167 56.9531 87.6911 56.9461 86.6637V85.6034C56.9461 84.6005 56.9764 83.51 57.0644 82.2987C56.9818 81.9914 56.942 81.6743 56.9461 81.3562L57.1857 79.9394C57.0251 78.7266 56.945 77.5046 56.9461 76.2813C57.3616 72.8587 57.9258 70.5871 58.6053 69.4362C58.8419 69.4362 59.1694 68.8471 59.5547 67.666C61.3018 66.1042 63.0793 65.3067 64.8871 65.3067C64.9144 65.3067 65.4482 65.2765 66.425 65.1889C69.1943 65.1738 71.0294 65.9713 71.8878 67.5331ZM63.8315 74.1426C63.8849 76.2379 64.0826 78.3272 64.423 80.3956V80.9997C64.4194 81.3562 64.3798 81.7115 64.3047 82.06C64.6323 83.0931 64.7809 84.5099 64.7809 86.3073L64.8992 86.7815C66.7192 85.2168 67.6291 82.06 67.6291 77.3416C67.6291 73.2998 66.8011 70.5539 65.1419 69.0797H65.0236C64.3411 69.0797 63.9559 70.5901 63.8376 73.5656L63.8315 74.1426ZM65.0175 101.399V101.635H65.1358V101.399H65.0175Z" fill="white"/>
<path d="M96.3842 68.5662C97.9858 68.5662 98.9625 69.1854 99.3477 70.4542C100.206 72.4026 101.095 75.4415 101.953 79.5407L102.675 83.9057L102.557 85.5581C102.645 87.6243 102.675 89.0411 102.675 89.8053C102.675 91.6178 102.29 93.9075 101.489 96.7682C101.222 101.961 100.898 104.556 100.543 104.556C99.5054 107.42 97.4307 109.718 94.3793 111.401C91.8617 112.491 89.7293 113.053 87.9822 113.053H87.8639L87.6273 113.171V113.044L87.3907 113.162C86.235 113.162 84.9307 112.365 83.4808 110.803C82.2342 109.178 81.0543 106.997 79.9259 104.311C78.8885 101.154 78.385 97.466 78.385 93.2188C78.385 91.9803 78.661 85.8441 79.2131 74.8101V72.9221C79.2131 71.5084 79.7773 70.8076 80.8723 70.8076C81.7319 70.4266 82.6612 70.226 83.6022 70.2185H84.3119L84.5485 70.1007V70.2185C84.6395 70.2185 84.6668 70.1883 84.6668 70.1007C86.2077 70.1007 87.421 70.8378 88.3401 72.3421C88.6146 73.1829 88.7737 74.0568 88.8133 74.94C88.6677 76.7676 88.5767 77.9608 88.5767 78.4774C88.5767 78.9214 88.8133 80.4258 89.2895 82.9632C89.1985 84.8512 89.0802 86.3556 88.9346 87.4461L89.1712 90.3974L89.0529 90.633C89.0454 90.7982 89.0865 90.962 89.1712 91.1043C89.0802 92.1374 89.0529 92.962 89.0529 93.5813V95.3515C89.0904 97.0521 89.2485 98.748 89.5261 100.426H89.4078C89.5465 101.304 89.7441 102.17 89.9993 103.021C90.4452 102.61 91.067 100.278 91.895 96.0735C91.895 95.572 92.2499 93.5058 92.9627 89.9352C93.2873 88.3735 93.4663 84.8935 93.5542 79.5528C93.6422 79.5528 93.7029 79.0815 93.7908 78.136C93.7619 77.5793 93.6827 77.0263 93.5542 76.4836H93.6725C93.5239 76.0728 93.4359 75.1575 93.4359 73.7649V70.8136C93.4359 69.7231 94.264 68.986 95.9232 68.5722L96.3842 68.5662Z" fill="white"/>
<path d="M124.211 67.3276C125.485 67.3276 126.107 67.7687 126.107 68.6266C126.225 68.6266 126.347 69.4815 126.465 71.2214C126.854 72.0173 127.171 72.8463 127.411 73.6985L127.175 79.2446C127.436 80.6459 127.555 82.0699 127.53 83.4949V83.6127C127.563 84.4144 127.442 85.2151 127.175 85.9719C127.351 87.0248 127.43 88.0916 127.411 89.1589V89.2767C127.411 90.6632 127.293 91.6661 127.056 92.3428C127.119 92.7734 127.158 93.207 127.175 93.6417C127.175 97.034 127.026 99.3057 126.701 100.487C126.789 102.049 126.82 103.051 126.82 103.553C126.744 104.385 126.625 105.213 126.465 106.033L126.583 107.682C126.583 109.866 124.42 111.401 120.065 112.286C118.821 112.286 117.726 111.458 116.746 109.809C116.422 108.54 115.651 106.003 114.377 102.257L112.6 96.0009H112.482C112.411 96.5885 112.372 97.1794 112.363 97.7711V98.2424C112.512 102.375 112.6 104.646 112.6 105.087C112.424 108.392 112.215 110.19 112.008 110.525C110.941 111.232 109.964 111.585 109.045 111.585C106.291 111.585 104.899 110.075 104.899 107.102C105.135 103.71 105.253 101.762 105.253 101.321C105.005 99.7581 104.847 98.1827 104.78 96.6021C104.825 96.047 104.904 95.4952 105.017 94.9497L104.899 94.2398C104.972 93.613 105.011 92.9828 105.017 92.3518C104.99 91.3265 104.911 90.3031 104.78 89.2857C105.165 84.9479 105.493 80.5526 105.73 76.0698C105.639 74.4748 105.611 73.3843 105.611 72.7651C105.611 70.7895 105.997 69.8137 106.794 69.8137C107.351 69.5608 107.96 69.4398 108.572 69.4603C111.742 69.4603 113.313 69.8137 113.313 70.5236C113.431 71.0251 113.935 71.7622 114.851 72.7651C115.294 73.6347 115.652 74.5452 115.918 75.4838C116.719 76.3689 117.104 77.6376 117.104 79.2597C118.051 80.174 118.524 81.5908 118.524 83.51C119.146 84.3649 119.68 86.3707 120.065 89.5274C120.301 89.5848 120.42 90.0288 120.42 90.8233H120.538C120.538 90.2645 120.747 88.023 121.145 84.099C121.145 82.063 121.175 80.8819 121.263 80.5587C121.17 80.0526 121.13 79.5383 121.145 79.0241V78.3052C121.134 77.947 121.173 77.589 121.263 77.2419C121.181 76.8545 121.142 76.4595 121.145 76.0637V74.5292C121.316 73.3939 121.428 72.2505 121.481 71.1036V68.6387C121.481 67.959 122.191 67.5179 123.605 67.3397L124.211 67.3276ZM120.289 91.2946V91.648H120.407V91.2946H120.289Z" fill="white"/>
<path d="M147.306 76.4142C148.414 79.1097 148.976 81.9963 148.962 84.9087C149.053 84.9087 149.084 85.1171 149.084 85.5128C149.084 85.6578 148.935 86.4855 148.607 87.9899C149.026 90.167 149.229 92.3797 149.214 94.5963V94.835C149.148 97.0494 148.902 99.2547 148.477 101.429C148.477 103.052 147.798 104.909 146.463 106.976C146.108 108.715 145.486 109.57 144.567 109.57C144.182 110.603 143.354 111.105 142.08 111.105C141.08 111.035 140.088 110.878 139.116 110.634C138.146 110.878 137.155 111.036 136.156 111.105H135.68C133.638 111.105 132.185 109.688 131.297 106.858C130.438 105.293 129.698 102.876 129.046 99.6592C129.046 99.1003 129.016 98.8043 128.928 98.7167L129.164 96.4722C129.076 95.2065 129.046 94.0556 129.046 93.0527V92.5785C129.046 89.0109 129.252 87.141 129.638 87.0323C129.567 86.9273 129.526 86.8052 129.519 86.6789C129.519 85.972 129.874 84.2894 130.587 81.607C130.587 80.5738 131.385 77.831 132.956 73.3451C133.696 72.46 134.409 71.9586 135.079 71.8105C136.936 71.105 138.907 70.7466 140.894 70.7533C144.103 70.7533 146.24 72.6402 147.306 76.4142ZM139.605 76.7677C139.277 77.9186 138.922 80.0724 138.537 83.2563V85.253C138.517 85.5603 138.392 85.8514 138.182 86.0777V86.549C138.182 88.6152 138.091 89.9111 137.946 90.4428C138.02 90.8719 138.059 91.3063 138.064 91.7417V92.9228C138.064 95.7231 138.507 99.3813 139.365 103.894H139.483C140.166 102.952 140.757 100.976 141.261 97.9947C141.585 95.6494 141.744 93.2844 141.737 90.917C141.683 88.9034 141.524 86.8939 141.261 84.8966V84.3075C141.266 83.8721 141.305 83.4378 141.379 83.0086C140.757 80.4711 140.196 78.3777 139.723 76.7556L139.605 76.7677Z" fill="white"/>
<path d="M24.5632 27.5892L24.6876 27.4533C24.7361 27.3173 24.7847 27.1905 24.8393 27.0757L24.5632 27.5892Z" fill="white"/>
<path d="M48.7107 9.86102L48.8819 9.791C48.8513 9.76665 48.8666 9.73316 48.7107 9.86102Z" fill="white"/>
<path d="M0.185164 90.479C0.181388 90.6482 0.195622 90.8173 0.22763 90.9835C0.20943 90.8355 0.194264 90.6905 0.185164 90.479Z" fill="white"/>
<path d="M179.995 101.408V101.71C180.003 101.61 180.003 101.509 179.995 101.408Z" fill="white"/>
<path d="M4.82593 87.6697C4.82593 87.8086 4.82593 87.9718 4.82593 88.0956C4.83921 87.9539 4.83921 87.8113 4.82593 87.6697Z" fill="white"/>
<path d="M176.604 116.618L176.693 116.824C176.686 116.669 176.647 116.615 176.604 116.618Z" fill="white"/>
<path d="M24.8391 27.0764L24.9487 26.8794C24.9074 26.9423 24.8708 27.0082 24.8391 27.0764Z" fill="white"/>
<path d="M177.175 72.3481C177.196 72.3246 177.211 72.2967 177.22 72.2665C177.15 72.0943 177.068 71.9282 176.996 71.759C177.068 72.0339 177.135 72.2242 177.175 72.3481Z" fill="white"/>
<path d="M146.223 24.9309C145.353 23.9824 144.403 23.1184 143.469 22.2303L145.253 23.5927C145.82 24.0398 146.342 24.4989 146.863 24.946L148.38 26.2389C148.868 26.6588 149.305 27.1059 149.751 27.5257C151.553 29.1811 153.039 30.8184 154.51 32.3892L156.6 34.824L157.128 35.4281L157.628 36.0655L158.647 37.3524L159.703 38.6725C160.043 39.1346 160.385 39.6059 160.74 40.0862C161.447 41.0498 162.212 42.0346 162.936 43.1402L162.554 42.6901C162.778 43.0592 163.029 43.4107 163.307 43.7413C163.479 43.9649 163.686 44.2337 163.937 44.5781C164.256 44.9959 164.552 45.4305 164.823 45.8801C165.157 46.4208 165.542 47.0702 165.994 47.8617C166.218 48.2574 166.476 48.6773 166.716 49.1576L167.477 50.7224C167.746 51.2842 168.035 51.8884 168.345 52.5348C168.648 53.1964 168.915 53.9184 169.227 54.6826L169.701 55.8728L169.949 56.4981C170.028 56.7096 170.098 56.9301 170.174 57.1536C170.469 58.0438 170.783 58.9913 171.117 59.9962L171.084 60.0113C171.348 60.5364 171.54 61.0941 171.657 61.6697C171.53 61.1954 171.43 60.7151 171.281 60.2499L170.847 58.8483C171.674 60.5421 172.399 62.2831 173.019 64.0622C173.146 64.5455 173.098 64.7388 173.064 64.7992C173.595 66.6389 174.196 68.4635 174.605 70.3394L174.772 72.1065C174.839 72.315 174.9 72.4841 174.96 72.6321C175.021 72.7802 175.063 72.904 175.115 73.0188C175.218 73.2484 175.321 73.4417 175.418 73.7317C175.562 74.1487 175.673 74.5758 175.752 75.0095C175.81 75.3116 175.87 75.668 175.934 76.094L176.034 76.7918C176.055 77.0455 176.073 77.3174 176.095 77.6134C176.213 75.8009 176.598 79.9062 176.701 79.3081C176.701 79.5497 176.701 80.0935 176.701 80.5315C176.726 80.7067 176.75 80.888 176.777 81.0813C176.804 81.2746 176.817 81.474 176.835 81.6854C176.874 82.1023 176.917 82.5403 176.959 82.9965C177.038 83.9027 177.156 84.8633 177.22 85.7816C177.32 87.6183 177.429 89.2706 177.523 89.9261C177.523 89.9261 177.554 89.2374 177.599 88.156C177.645 87.0745 177.754 85.5913 177.711 84.0175C177.711 83.2291 177.711 82.4165 177.711 81.619V81.0148C177.711 80.8155 177.693 80.6221 177.684 80.4288C177.666 80.0401 177.648 79.6625 177.629 79.296C177.557 77.8309 177.545 76.5592 177.478 75.807C177.648 76.7978 177.672 77.3687 177.72 77.6406C177.769 77.9125 177.766 77.8943 177.763 77.7252C177.763 77.3869 177.711 76.4444 177.681 76.0456L177.551 75.7979C177.208 73.4115 177.423 73.3813 177.268 72.173C177.25 72.173 177.238 72.2153 177.223 72.2545L177.278 72.3996C177.259 72.5204 177.223 72.46 177.178 72.3361C177.138 72.3754 177.087 72.2696 176.947 71.6292L176.999 71.7471C176.741 70.7713 176.392 69.0676 176.225 68.3245L176.398 68.2641C176.084 67.4263 175.824 66.5697 175.618 65.6994C175.464 65.0953 175.315 64.4186 175.13 63.7057C174.945 62.9928 174.724 62.2588 174.523 61.5126C174.323 60.7665 174.123 60.0022 173.899 59.2893C173.674 58.5764 173.434 57.8786 173.228 57.2443L172.658 55.5375C172.473 55.0542 172.306 54.6615 172.185 54.3836C171.985 53.8066 171.742 53.2085 171.469 52.5922L171.041 51.6528C170.896 51.3356 170.714 51.0275 170.547 50.7073L169.5 48.7619C169.331 48.4266 169.158 48.0913 168.985 47.756L168.439 46.7561C166.061 42.527 167.471 44.5086 166.315 42.3578C164.756 39.7267 166.47 42.9922 165.797 41.9681L164.914 40.3611C164.611 39.8294 164.28 39.3189 163.962 38.7933C165.217 40.5151 164.638 39.5122 164.468 39.1528C164.013 38.5033 163.51 37.7481 162.991 36.9718C162.861 36.7814 162.733 36.5821 162.6 36.3918L162.181 35.8269L161.365 34.7273C160.828 34.0204 160.337 33.3619 159.9 32.8695C159.598 32.5079 159.25 32.1879 158.863 31.918C158.192 31.0812 157.695 30.4438 157.31 29.9424C156.925 29.4409 156.609 29.0966 156.369 28.7975C155.881 28.1933 155.59 27.8339 154.959 27.1633C155.338 27.6556 156.142 28.583 156.096 28.6404C155.023 27.2871 155.49 28.0725 155.957 28.6072C155.717 28.3837 155.399 28.0544 155.02 27.6526C154.641 27.2509 154.222 26.7464 153.718 26.2661L152.117 24.6681L151.292 23.8132C151.019 23.5111 150.719 23.2664 150.433 22.9915L148.78 21.4328C148.513 21.1912 148.259 20.9555 148.016 20.732L147.3 20.1429C146.39 19.418 145.765 18.9346 145.595 18.9346L145.641 18.8772C144.977 18.7413 145.571 19.563 144.03 18.5752L143.12 17.7626L141.552 16.808C140.603 16.0196 141.14 16.3035 141.161 16.2733C140.858 16.0649 140.515 15.8625 140.163 15.6692L139.074 14.9985C138.334 14.5394 137.582 14.0198 136.784 13.5335L134.357 12.0774C133.945 11.8388 133.55 11.579 133.144 11.3615L131.931 10.7181C132.437 11.1319 132.95 11.5277 133.447 11.9566L134.903 13.2586L133.869 12.5759C133.499 12.3342 133.114 12.0654 132.701 11.8328C131.879 11.3494 131.024 10.848 130.229 10.3949C129.537 9.99051 128.823 9.62444 128.091 9.29832C127.717 9.10314 127.319 8.95693 126.908 8.86333C126.386 8.53406 125.87 8.18969 125.342 7.86949C123.968 7.18981 123.022 6.76388 122.349 6.49201C122.009 6.35607 121.742 6.25941 121.518 6.18993C121.333 6.13895 121.146 6.09761 120.956 6.06608C120.288 6.03045 119.633 5.87061 119.024 5.59484L117.614 4.96349C117.144 4.74901 116.658 4.58287 116.179 4.38652C116.667 4.53454 117.168 4.65235 117.65 4.82151L119.103 5.3139C118.387 5.03599 117.781 4.78526 117.232 4.58287L115.715 4.05121L114.311 3.54372C113.831 3.37456 113.331 3.16008 112.739 2.98789H112.712C112.808 3.00784 112.901 3.04141 112.988 3.08758L112.566 2.99998C112.151 3.08758 110.562 2.7855 108.453 2.33238C106.937 2.04843 105.59 1.82791 104.01 1.59229C103.215 1.49865 102.366 1.38688 101.413 1.24188C100.934 1.16938 100.434 1.08782 99.8967 0.997196L98.1798 0.770637L96.9332 0.97907C96.3265 0.906571 95.7199 0.81595 95.1133 0.761575L93.2721 0.622617V0.380956C95.092 0.380956 97.6885 0.583348 100.418 0.812928L104.513 1.30229L108.274 1.94874L108.378 1.8551C107.016 1.61646 105.557 1.36875 104.21 1.17542C102.857 1.0274 101.623 0.894489 100.716 0.767616C100.497 0.728346 100.194 0.661888 99.8845 0.59241C99.5751 0.522932 99.2627 0.471578 99.0292 0.408142C98.5651 0.284289 98.4225 0.1695 99.2536 0.151375L97.5247 0.257103C95.2194 0.048669 93.4783 0.0698138 92.0224 0.0214812C90.5664 -0.0268514 89.3895 0.0214812 88.2005 0.0214812L86.3806 0.0396063C85.7436 0.0396063 85.0672 0.100022 84.3119 0.133251L81.7822 0.257103C80.8388 0.317519 79.7893 0.444391 78.5821 0.559181H79.4314C78.485 0.716262 77.5387 0.861259 76.7652 0.97907C76.222 1.10726 75.6639 1.16213 75.106 1.14219L72.9524 1.50469L72.4155 1.59531L71.8817 1.7101L70.8231 1.93666C69.4156 2.23874 68.0173 2.49551 66.713 2.8429L64.79 3.31716L63.88 3.53768C63.5767 3.60716 63.2915 3.7008 63.0034 3.77934C61.8599 4.10257 60.8073 4.3835 59.8822 4.61912C59.6517 4.79433 59.4211 4.97255 59.1997 5.16588C58.0531 5.60087 56.1665 5.87577 55.7661 6.46482C55.3627 6.63701 54.9774 6.84846 54.5862 7.04179L53.4153 7.64595C52.6449 7.98126 52.0413 8.28938 51.4073 8.5975C50.707 8.9821 49.9849 9.32604 49.2446 9.62759L48.9079 9.7605C48.9079 9.7605 48.9261 9.7605 48.9383 9.7605C48.0768 10.1653 47.6552 10.3647 47.4489 10.5066C47.2427 10.6486 47.2487 10.6728 47.2366 10.7151C47.2245 10.7574 47.1305 10.9054 45.2043 11.9234C44.7137 12.1128 44.2698 12.4054 43.9031 12.7813C43.4096 13.2844 42.8506 13.7193 42.2409 14.0742L40.1904 14.9079C38.9359 15.6617 37.7377 16.5046 36.6051 17.4303C36.0895 17.8562 35.5556 18.3365 34.864 18.9407C34.5182 19.2428 34.1361 19.5448 33.7053 19.9013C33.493 20.0765 33.2595 20.2577 33.0229 20.4571L32.304 21.0915C30.1807 22.7197 28.9674 23.3148 30.114 21.9222C29.3041 22.8526 29.1616 23.1033 28.9007 23.3873C28.6398 23.6712 28.3122 24.0126 27.2051 25.1997C26.735 25.4323 26.9625 25.1726 27.3841 24.5956C26.832 25.0578 26.4741 25.375 26.2405 25.6076C26.0704 25.7767 25.917 25.9619 25.7825 26.1604C25.4695 26.639 25.1043 27.0817 24.6936 27.4804C24.4691 28.139 24.3084 28.9727 23.8413 29.4893L24.4843 28.9485L23.9292 29.6101L23.3832 30.3019C23.0162 30.7671 22.631 31.2383 22.2336 31.7095C21.8363 32.1808 21.4147 32.646 21.0203 33.1384C20.626 33.6308 20.1953 34.1292 19.7585 34.6246L19.7039 34.4554L18.8607 35.5852L18.4421 36.1471C18.3056 36.3404 18.1782 36.5368 18.0447 36.7301L17.7899 36.7633L16.6464 38.4157L16.0731 39.2434L15.788 39.6572L15.5211 40.0832L15.8638 39.6482C15.6151 40.0499 15.0873 40.9139 14.4928 41.8533C14.1895 42.3246 13.8862 42.814 13.5828 43.2761C13.2795 43.7383 13.0247 44.1975 12.779 44.566L12.7214 44.4603C12.3726 44.9799 12.042 45.4964 11.7235 46.0099C11.405 46.5235 11.0926 47.031 10.8135 47.5596C10.2675 48.6108 9.75489 49.6742 9.23924 50.7405C8.72359 51.8068 8.30804 52.9729 7.81059 54.16C7.68926 54.4621 7.55276 54.7642 7.4375 55.0663L7.08868 56.0118L6.3334 57.9934L6.41833 57.202C5.95425 58.1082 5.97851 58.2502 5.99974 58.4526C6.02098 58.655 6.02098 58.9057 5.59632 60.0143L5.31423 60.0385C5.20525 60.8099 4.97708 61.5599 4.63782 62.2618C4.50739 62.5306 4.36786 62.7783 4.22227 63.0411C4.07379 63.3288 3.94114 63.6242 3.82491 63.9262L4.33753 63.3764L3.52159 65.9683C3.36955 66.4631 3.19031 66.9491 2.98471 67.4243C2.86944 67.7113 2.78755 67.817 2.72688 67.817C2.61162 67.817 2.57219 67.3971 2.54792 67.1615C2.46602 67.8472 2.40839 68.536 2.33863 69.2217L1.95644 69.5419C1.96933 70.0937 1.88621 70.6435 1.71075 71.1671C1.46435 71.9607 1.30867 72.7795 1.24666 73.6079C1.09803 73.7982 1.1496 73.1336 0.943337 74.0036L0.758309 76.1393L0.694612 78.3142L0.767409 77.0093C0.791675 76.5743 0.80684 76.1363 0.861439 75.7043L1.24059 76.0849C1.23675 77.1162 1.14236 78.1451 0.958504 79.1601C0.778723 79.9763 0.677159 80.8078 0.655181 81.6431C0.655181 81.1991 0.624848 80.752 0.655181 80.308C0.612715 80.6976 0.603614 81.0481 0.582381 81.3562C0.561148 81.6643 0.539917 81.9362 0.524751 82.1778C0.482286 82.6642 0.436786 83.0327 0.388254 83.362C0.297257 84.0145 0.181994 84.4948 0.0849303 85.3829C0.19716 84.8331 0.388255 84.0024 0.348823 85.2772C0.348823 86.2136 0.178961 85.7756 0.109197 86.6607C0.251759 86.7724 0.348821 87.3947 0.38522 88.2406C0.40342 88.6635 0.406453 89.1468 0.38522 89.6452C0.363988 90.1436 0.385221 90.6723 0.357922 91.1858C0.315457 91.1586 0.276024 91.1163 0.245692 90.9834C0.343886 91.5447 0.375448 92.1155 0.339723 92.6841L0 92.1555L0.354888 93.8985C0.341199 94.5171 0.381797 95.1357 0.476218 95.7472C0.536883 96.297 0.570249 96.6836 0.454986 96.6142L0.339723 95.9556C0.500485 98.9039 0.82504 101.843 1.27699 104.764L1.0404 104.927C1.29519 105.332 1.47415 106.525 1.64705 107.577C1.70775 108.03 1.80204 108.478 1.92914 108.918C2.0262 109.247 2.12327 109.425 2.23246 109.329C2.29714 109.899 2.39845 110.465 2.53579 111.023C2.69352 111.685 2.83911 112.41 3.04537 113.038C3.41543 114.298 3.65202 115.249 3.285 114.851C3.48216 115.555 3.67325 116.216 3.86434 116.847C4.05544 117.479 4.30113 118.056 4.51346 118.636L5.1565 120.327C5.26267 120.605 5.36276 120.883 5.48106 121.158L5.84202 121.98L7.35864 125.496C7.66196 126.121 7.94708 126.786 8.26861 127.496L8.74483 128.598C8.82672 128.789 8.90559 128.985 8.99355 129.181C9.08152 129.378 9.17858 129.571 9.27564 129.77C9.98623 131.735 10.8884 133.626 11.9692 135.416C12.2967 135.987 12.6183 136.576 12.9701 137.15L14.0621 138.851L15.1177 140.494C15.4695 141.02 15.8335 141.509 16.155 141.98C18.4919 145.163 21.0352 148.19 23.7685 151.043L25.737 153.015C26.0707 153.345 26.3952 153.689 26.7471 154.012L27.8178 154.991C28.5458 155.646 29.2707 156.344 30.0655 157.024L32.5739 159.12C33.071 159.648 33.5997 160.146 34.1573 160.61C34.7336 161.105 35.3463 161.609 35.9772 162.12C36.2806 162.38 36.6294 162.621 36.9752 162.86L38.0156 163.582C38.7193 164.059 39.4291 164.555 40.1601 165.023L42.3865 166.37L43.4875 167.041C43.8515 167.267 44.2307 167.458 44.5947 167.669C46.0719 168.479 47.4429 169.334 48.732 170.05L50.279 170.572C50.6945 170.832 51.1374 171.113 51.6257 171.367C52.1141 171.62 52.6358 171.865 53.1787 172.116C54.2677 172.617 55.4324 173.167 56.6912 173.626C59.1754 174.62 61.8902 175.532 64.4715 176.514C65.8 176.783 66.4855 176.943 66.7919 177.021C66.5523 176.943 66.2004 176.795 66.1276 176.617C66.4977 176.75 66.9678 176.895 67.4592 177.043C67.7079 177.112 67.9567 177.194 68.2084 177.257L68.9394 177.435C69.8706 177.668 70.5804 177.876 70.4348 177.997L70.0405 177.937C69.8919 178.058 71.0657 178.293 72.4671 178.571C73.8957 178.786 75.564 179.036 76.4103 179.317L75.5155 178.834L76.9745 179.118L78.4456 179.332L77.6479 179.293L79.9865 179.474C80.7387 179.532 81.4637 179.619 82.1735 179.634C83.59 179.698 84.9185 179.786 86.1895 179.864C87.4634 179.888 88.6767 179.924 89.8597 179.967L90.7393 180H91.6129H93.3388C97.9069 179.94 102.439 179.698 108.32 178.188C107.565 178.49 108.141 178.351 108.927 178.166C109.712 177.982 110.716 177.674 110.835 177.843C111.575 177.795 112.311 177.694 113.037 177.541C113.712 177.38 114.376 177.173 115.023 176.922C116.291 176.448 117.48 175.97 118.636 175.484C118.636 175.466 118.651 175.436 118.779 175.36L120.853 174.686C121.199 174.572 121.548 174.469 121.888 174.342L122.91 173.952C120.656 175.36 125.688 172.442 123.611 173.69C129.592 171.522 135.286 168.636 140.566 165.095C141.291 164.651 141.971 164.138 142.668 163.645L144.758 162.135L146.781 160.543C147.449 160.005 148.143 159.501 148.777 158.927L150.719 157.253C151.022 156.969 151.371 156.707 151.674 156.411L152.584 155.541L154.422 153.816C155.029 153.233 155.59 152.629 156.172 152.043L155.681 152.375C156.263 151.771 156.87 151.133 157.486 150.478C158.101 149.822 158.663 149.106 159.239 148.433C160.422 147.113 161.426 145.781 162.296 144.853C163.152 143.894 163.894 142.841 164.511 141.715C164.814 141.198 165.081 140.721 165.305 140.319C165.53 139.917 165.691 139.579 165.821 139.373C166.385 138.338 167.03 137.35 167.75 136.416C168.229 135.739 168.484 135.51 168.178 136.011C168.533 135.362 168.866 134.712 169.194 134.048C169.522 133.383 169.867 132.71 170.171 131.979C170.474 131.247 170.832 130.507 171.22 129.716C171.408 129.317 171.636 128.918 171.827 128.486C172.018 128.055 172.242 127.62 172.476 127.16C172.907 126.506 173.268 125.808 173.553 125.079C173.974 124.043 174.414 122.756 174.857 121.518C174.966 121.215 175.085 120.913 175.179 120.596C175.273 120.279 175.361 119.992 175.449 119.69C175.628 119.113 175.794 118.578 175.946 118.128C176.249 117.222 176.486 116.633 176.607 116.639L176.583 116.585C177.023 115.346 177.402 114.108 177.754 112.866C177.945 112.262 178.057 111.612 178.2 110.981C178.342 110.35 178.464 109.715 178.597 109.081C178.661 108.761 178.727 108.444 178.794 108.123C178.861 107.803 178.9 107.477 178.955 107.151C179.062 106.504 179.171 105.85 179.283 105.187C179.34 104.858 179.401 104.529 179.462 104.193C179.522 103.858 179.589 103.526 179.634 103.187C179.735 102.508 179.847 101.822 179.971 101.124C179.987 101.224 179.996 101.325 179.998 101.426C180.02 97.5901 179.802 93.7563 179.343 89.9473C178.801 91.0227 178.256 92.079 177.708 93.1161L177.52 94.3244C177.447 94.7232 177.356 95.1189 177.275 95.5146L176.777 97.8829C176.628 98.6713 176.41 99.4477 176.204 100.224L175.597 102.547C174.988 106.803 174.076 111.01 172.867 115.138C171.615 119.258 170.077 123.288 168.266 127.197C165.097 133.292 161.229 139.001 156.74 144.21C154.062 147.398 151.177 150.409 148.104 153.221C144.995 156.007 141.701 158.581 138.243 160.924L135.61 162.615C135.176 162.917 134.718 163.162 134.266 163.422L132.91 164.204L131.555 164.99L130.159 165.706L128.761 166.431C128.294 166.669 127.851 166.92 127.354 167.125L124.502 168.421C124.029 168.648 123.538 168.823 123.052 169.025L121.596 169.602L120.137 170.179L118.654 170.684L117.168 171.191C116.674 171.358 116.182 171.539 115.676 171.672L112.315 172.986C107.443 173.916 101.893 174.892 96.1658 175.285C90.439 175.677 84.5697 175.523 79.3283 174.602L79.0704 174.871C78.3243 174.777 77.7753 174.717 77.3688 174.626C76.9623 174.535 76.6924 174.466 76.4922 174.405C76.0888 174.282 75.9675 174.197 75.6065 174.103L74.3174 173.88C73.8867 173.798 73.4529 173.744 73.0313 173.635L70.4743 173.058L69.1942 172.756L67.9294 172.403L65.3966 171.699C64.5564 171.448 63.7314 171.155 62.8972 170.883C62.0631 170.611 61.2229 170.358 60.413 170.019C58.7781 169.382 57.128 168.787 55.5386 168.041C54.7408 167.681 53.9279 167.346 53.1423 166.962L50.7946 165.784C50.4033 165.585 50.012 165.394 49.6238 165.18L48.4833 164.534L46.1992 163.247C43.2206 161.455 40.3503 159.49 37.6031 157.362C34.8885 155.261 32.3007 153.003 29.8531 150.599L28.0878 148.765C27.5024 148.161 26.9048 147.557 26.3649 146.907C25.2608 145.632 24.1385 144.388 23.1345 143.056C22.6249 142.397 22.1032 141.751 21.6179 141.092L20.171 139.092L19.4613 138.087C19.2186 137.754 19.0154 137.398 18.7909 137.056L17.4866 134.996C17.0347 134.323 16.6646 133.604 16.2733 132.909C15.882 132.214 15.4877 131.51 15.0934 130.816L14.0287 128.686L13.504 127.629L13.2401 127.1C13.1582 126.925 13.0824 126.74 13.0035 126.562C12.6061 125.414 11.5597 123.215 10.7559 120.983L10.128 119.352C9.95509 118.817 9.79129 118.303 9.6366 117.841C9.33327 116.899 9.10881 116.119 9.00872 115.657C8.91165 115.422 8.82672 115.183 8.74786 114.941L8.51126 114.213C8.34949 113.728 8.19075 113.241 8.03505 112.751C7.87732 112.262 7.73172 111.769 7.5649 111.277L7.17361 109.767C7.04621 109.265 6.91578 108.761 6.78839 108.256C6.66099 107.752 6.5154 107.247 6.42743 106.731C6.23027 105.707 6.03311 104.677 5.82078 103.65C5.77529 103.393 5.72069 103.136 5.68126 102.876L5.57812 102.1L5.36883 100.544C5.3021 100.025 5.23537 99.5051 5.1656 98.9885C5.09584 98.472 5.07764 97.9494 5.03214 97.4328C4.95328 96.3937 4.87745 95.3605 4.79858 94.3305C4.77735 93.3004 4.75612 92.2733 4.73488 91.2553L4.77432 91.5574C4.75612 90.92 4.70759 90.2796 4.71365 89.6392L4.73185 87.721C4.76218 87.5579 4.79858 87.5397 4.81678 87.6636C4.79858 87.1229 4.78645 86.5429 4.78342 85.9296C4.78342 85.6276 4.78342 85.3104 4.81375 84.9902C4.84408 84.67 4.85621 84.3437 4.87441 84.0115C4.97754 82.6853 5.04731 81.2595 5.28693 79.8246C5.52656 78.3898 5.68125 76.9126 6.00884 75.4959C6.33643 74.0791 6.55483 72.6775 6.91882 71.4027L6.87938 71.7048C7.10081 70.7653 7.31617 69.8289 7.53456 68.8954C7.75296 67.962 8.05325 67.0497 8.30804 66.1284L8.69933 64.7509C8.82976 64.2918 9.00265 63.8447 9.14521 63.3916C9.44854 62.4853 9.75186 61.5791 10.0552 60.691C10.3585 59.8029 10.7437 58.9238 11.0865 58.0417L11.6021 56.7217L12.1815 55.4288L13.3402 52.852C13.7648 52.0123 14.1905 51.1745 14.6172 50.3387C14.8325 49.9219 15.0358 49.499 15.2572 49.0851L15.9548 47.8768C16.422 47.0642 16.8648 46.2456 17.3532 45.442L18.8698 43.0768C19.1246 42.6841 19.3581 42.2793 19.6311 41.8987L20.438 40.7568C22.5694 37.6971 24.8999 34.7799 27.4144 32.0237C28.7005 30.6764 29.9532 29.305 31.3273 28.0332L32.3343 27.0666L32.8409 26.5833C33.0138 26.4262 33.1927 26.2812 33.3656 26.1211L35.4889 24.2875C38.3519 21.877 41.3782 19.6655 44.5461 17.6689C46.1083 16.6237 47.7705 15.7386 49.3993 14.7962C50.2244 14.34 51.0797 13.9382 51.9199 13.5063L53.1878 12.8659C53.6095 12.6514 54.0493 12.4762 54.48 12.2798L57.0855 11.1289C57.9682 10.7725 58.863 10.4462 59.7518 10.1018L61.0894 9.59134C61.5414 9.43425 61.9994 9.28926 62.4513 9.14426L65.1813 8.26219L67.7929 7.59459L69.1184 7.25023C69.5643 7.1445 70.0284 7.05992 70.4712 6.94815L73.2011 6.34399C74.1111 6.16576 75.0605 6.02077 75.9978 5.8516L77.4143 5.6039C77.8875 5.51932 78.3667 5.47702 78.846 5.41057L81.7458 5.05713C82.7194 4.96047 83.7022 4.89401 84.685 4.80943L86.1682 4.68558C86.6626 4.65839 87.1631 4.65235 87.6606 4.63422L90.6665 4.53454L93.6998 4.59193C94.2063 4.59193 94.7129 4.59193 95.2164 4.62818L96.733 4.73693C97.7461 4.81849 98.7653 4.86985 99.7814 4.97859C101.805 5.24442 103.843 5.46192 105.848 5.88483C107.871 6.22014 109.852 6.75784 111.832 7.25929C112.19 7.37106 112.991 7.64897 114.138 7.99032L116.094 8.57031L118.448 9.3829C120.15 9.9206 122 10.7181 123.99 11.4975L126.974 12.8357L127.736 13.177L128.485 13.5546L130.002 14.3128L131.503 15.0741L132.959 15.8987L134.397 16.7083L135.103 17.1101L135.786 17.539L138.404 19.1823C139.226 19.7351 139.999 20.2849 140.73 20.7894L141.789 21.5204C142.128 21.7591 142.435 22.0098 142.738 22.2364L144.358 23.4658C145.307 24.1546 145.929 24.7104 146.223 24.9309Z" fill="white"/>
<path d="M173.047 64.8154L173.01 64.6936C172.897 64.7362 172.995 64.9067 173.047 64.8154Z" fill="white"/>
<path d="M131.712 10.6124L131.912 10.7182L131.239 10.1714L131.712 10.6124Z" fill="white"/>
<path d="M165.524 40.6784C165.217 40.1565 164.881 39.6523 164.517 39.168C164.368 38.9746 164.38 39.026 164.441 39.168C164.653 39.4701 164.856 39.757 165.048 40.0077C165.239 40.2585 165.381 40.4941 165.524 40.6784Z" fill="white"/>
<path d="M176.535 80.5315C176.656 81.5616 176.68 81.1628 176.689 80.5466L176.438 78.7673C176.48 79.3503 176.489 79.9334 176.535 80.5315Z" fill="white"/>
<path d="M177.678 76.0637L177.839 76.3658C177.705 75.7647 177.672 75.7949 177.678 76.0637Z" fill="white"/>
<path d="M12.6335 67.1585C13.0734 65.63 14.3716 64.8748 15.9155 65.3128C17.4594 65.7508 18.1298 67.1253 17.6748 68.7202L17.326 69.9285L19.431 70.5327L18.9093 72.3452L11.7327 70.2971L12.6335 67.1585ZM15.9549 69.5449L16.1915 68.7202C16.413 67.9499 16.14 67.379 15.3908 67.1645C14.6415 66.95 14.1107 67.2914 13.8923 68.0557L13.6527 68.8864L15.9549 69.5449Z" fill="white"/>
<path d="M22.3367 62.008L15.4634 59.0959L16.2065 57.356L23.0798 60.268L22.3367 62.008Z" fill="white"/>
<path d="M24.2234 55.0452L21.9424 49.641L21.9121 49.6229L20.171 52.6286L18.8455 51.8643L21.7179 46.9314L22.7614 47.5356L25.0242 52.9307L25.0545 52.9488L26.8744 49.8072L28.1969 50.5714L25.2668 55.6494L24.2234 55.0452Z" fill="white"/>
<path d="M30.0747 45.7349L28.6096 40.0589L28.5823 40.0377L26.4105 42.7564L25.2124 41.8079L28.7734 37.3462L29.7168 38.0953L31.1879 43.7563L31.2182 43.7805L33.4871 40.9379L34.6852 41.8864L31.018 46.478L30.0747 45.7349Z" fill="white"/>
<path d="M41.886 34.673L38.1612 38.1681L33.0381 32.7578L36.7629 29.2598L37.8154 30.3714L35.4707 32.5706L36.4899 33.646L38.692 31.5767L39.6505 32.5917L37.4605 34.6579L38.504 35.7605L40.8456 33.5614L41.886 34.673Z" fill="white"/>
<path d="M47.4308 30.3049L45.8778 31.3924L41.5828 25.3085L44.2065 23.4719C45.7231 22.4055 47.082 22.5807 47.9708 23.8374C48.2369 24.1837 48.3949 24.6003 48.4251 25.0354C48.4553 25.4704 48.3564 25.9047 48.1406 26.2842L51.0252 27.7946L49.2811 29.0029L46.7332 27.6073L45.9264 28.1692L47.4308 30.3049ZM45.1802 27.1179L46.0902 26.4745C46.6604 26.0728 46.7666 25.5048 46.3935 24.9641C46.3138 24.8439 46.2096 24.7418 46.0877 24.6643C45.9658 24.5868 45.8289 24.5357 45.6859 24.5144C45.5428 24.493 45.3969 24.5018 45.2575 24.5403C45.1181 24.5787 44.9885 24.6459 44.8769 24.7376L43.9669 25.378L45.1802 27.1179Z" fill="white"/>
<path d="M51.6621 18.2157L51.9654 16.2159L53.3971 15.4607L52.9027 17.5752L51.6621 18.2157ZM55.2504 25.384L51.747 18.8168L53.4244 17.9287L56.9278 24.4959L55.2504 25.384Z" fill="white"/>
<path d="M65.2267 19.1191L62.9396 19.977L63.0731 21.6716L61.2531 22.3513L60.968 14.4973L63.1429 13.6816L68.1234 19.7564L66.2337 20.4663L65.2267 19.1191ZM62.8001 18.5753L64.3925 17.9712L62.6029 15.5817H62.5635L62.8001 18.5753Z" fill="white"/>
<path d="M78.9703 17.2219L78.124 9.83003L79.6406 9.66086L83.2805 13.5879H83.32L82.8286 9.29233L84.6182 9.08691L85.4675 16.4788L83.9751 16.6479L80.314 12.6696H80.2716L80.769 17.0074L78.9703 17.2219Z" fill="white"/>
<path d="M95.1587 14.8686L92.7169 14.793L92.1891 16.4092L90.2539 16.3487L92.999 8.97803L95.3225 9.05355L97.5944 16.5662L95.5773 16.5028L95.1587 14.8686ZM93.1264 13.4427L94.828 13.4971L94.094 10.6062H94.0515L93.1264 13.4427Z" fill="white"/>
<path d="M107.004 10.5732C108.572 10.8753 109.43 12.1108 109.127 13.6756C108.823 15.2404 107.495 16.0288 105.866 15.7086L104.632 15.4669L104.207 17.6056L102.344 17.2371L103.791 9.94189L107.004 10.5732ZM104.905 14.0713L105.748 14.2375C106.539 14.3915 107.088 14.0743 107.24 13.3101C107.392 12.5458 107.004 12.0504 106.224 11.8963L105.369 11.7302L104.905 14.0713Z" fill="white"/>
<path d="M120.95 18.6597C120.128 20.8861 118.281 21.7802 116.158 21.0039C114.035 20.2275 113.203 18.3546 114.035 16.1283C114.866 13.902 116.71 13.0048 118.833 13.7812C120.956 14.5575 121.784 16.4364 120.95 18.6597ZM115.842 16.7929C115.354 18.119 115.691 19.2095 116.692 19.5629C117.693 19.9164 118.648 19.3243 119.136 17.9982C119.625 16.6721 119.288 15.5815 118.293 15.2221C117.298 14.8626 116.325 15.4728 115.842 16.7929Z" fill="white"/>
<path d="M128.555 26.7071L124.187 24.3147L127.781 17.7988L129.446 18.7051L126.586 23.8827L129.295 25.3629L128.555 26.7071Z" fill="white"/>
<path d="M136.845 32.4407L132.738 29.3957L137.199 23.4297L141.303 26.4716L140.393 27.6981L137.809 25.7829L136.923 26.9701L139.35 28.7825L138.516 29.8972L136.089 28.0847L135.179 29.293L137.761 31.2082L136.845 32.4407Z" fill="white"/>
<path d="M142.007 37.017L146.184 32.8181L144.713 31.3682L145.793 30.2837L150.082 34.5128L149.005 35.5973L147.534 34.1473L143.357 38.3462L142.007 37.017Z" fill="white"/>
<path d="M151.425 45.2456L149.942 43.3123L148.35 43.9165L147.173 42.3849L154.632 39.8535L156.045 41.6902L151.635 48.1939L150.421 46.5989L151.425 45.2456ZM151.253 42.7746L152.287 44.1249L154.07 41.7264L154.043 41.6932L151.253 42.7746Z" fill="white"/>
<path d="M154.21 52.2388L160.786 48.7014L161.505 50.0306L159.184 54.8638L159.202 54.9001L163.027 52.8459L163.88 54.4258L157.307 57.9541L156.594 56.6401L158.942 51.7766L158.923 51.7403L155.062 53.8126L154.21 52.2388Z" fill="white"/>
<path d="M162.412 66.3429L161.608 64.0441L159.903 64.1347L159.266 62.3222L167.153 62.2346L167.917 64.4187L161.693 69.2278L161.028 67.3277L162.412 66.3429ZM163.018 63.9444L163.576 65.5424L166.021 63.8236V63.7843L163.018 63.9444Z" fill="white"/>
<path d="M167.42 116.854C166.898 118.364 165.56 119.044 164.044 118.521C162.527 117.998 161.92 116.588 162.469 115.026L162.882 113.842L160.813 113.129L161.42 111.341L168.478 113.757L167.42 116.854ZM164.232 114.307L163.95 115.114C163.689 115.875 163.928 116.458 164.665 116.712C165.403 116.965 165.952 116.654 166.212 115.902L166.495 115.083L164.232 114.307Z" fill="white"/>
<path d="M157.446 121.478L164.15 124.753L163.313 126.45L156.609 123.176L157.446 121.478Z" fill="white"/>
<path d="M155.186 128.333L157.173 133.848L157.201 133.867L159.111 130.955L160.395 131.791L157.273 136.561L156.263 135.903L154.267 130.402L154.237 130.381L152.244 133.423L150.961 132.589L154.186 127.677L155.186 128.333Z" fill="white"/>
<path d="M148.838 137.316L149.994 143.056L150.021 143.08L152.338 140.479L153.485 141.491L149.69 145.759L148.78 144.965L147.616 139.226L147.588 139.201L145.162 141.92L144.015 140.908L147.925 136.516L148.838 137.316Z" fill="white"/>
<path d="M136.447 147.735L140.354 144.439L145.183 150.118L141.276 153.414L140.287 152.248L142.744 150.176L141.783 149.046L139.471 150.997L138.561 149.934L140.873 147.986L139.89 146.829L137.433 148.901L136.447 147.735Z" fill="white"/>
<path d="M130.681 151.795L132.292 150.792L136.235 157.099L133.505 158.794C131.925 159.776 130.584 159.528 129.768 158.223C129.521 157.863 129.385 157.439 129.378 157.003C129.371 156.566 129.493 156.138 129.729 155.77L126.941 154.127L128.761 153.003L131.23 154.535L132.064 154.015L130.681 151.795ZM132.753 155.1L131.8 155.704C131.209 156.072 131.072 156.634 131.415 157.181C131.489 157.307 131.588 157.416 131.707 157.501C131.826 157.586 131.962 157.644 132.105 157.673C132.248 157.701 132.396 157.699 132.539 157.667C132.681 157.634 132.815 157.571 132.932 157.483L133.881 156.879L132.753 155.1Z" fill="white"/>
<path d="M122.6 156.296L125.746 163.044L124.023 163.842L120.875 157.093L122.6 156.296ZM125.8 163.652L125.4 165.633L123.929 166.313L124.536 164.235L125.8 163.652Z" fill="white"/>
<path d="M112.3 162.008L114.629 161.277L114.59 159.577L116.434 158.997L116.288 166.851L114.071 167.548L109.433 161.205L111.356 160.601L112.3 162.008ZM114.69 162.685L113.064 163.189L114.72 165.676H114.759L114.69 162.685Z" fill="white"/>
<path d="M98.4803 163.165L98.9323 170.59L97.4156 170.681L93.9911 166.554H93.9517L94.2126 170.871L92.4139 170.98L91.9619 163.555L93.4603 163.464L96.9121 167.636H96.9516L96.6877 163.277L98.4803 163.165Z" fill="white"/>
<path d="M82.1764 164.66L84.6029 164.893L85.2339 163.313L87.16 163.497L83.9447 170.66L81.6334 170.439L79.8499 162.793L81.8609 162.987L82.1764 164.66ZM84.1115 166.21L82.416 166.047L82.965 168.977H83.0075L84.1115 166.21Z" fill="white"/>
<path d="M70.1195 168.325C68.5695 167.932 67.7717 166.66 68.1691 165.111C68.5664 163.561 69.9284 162.848 71.539 163.259L72.7523 163.561L73.2922 161.446L75.1334 161.912L73.2892 169.122L70.1195 168.325ZM72.4065 164.947L71.5724 164.736C70.7898 164.537 70.2256 164.824 70.0315 165.579C69.8374 166.334 70.1983 166.85 70.9688 167.047L71.812 167.261L72.4065 164.947Z" fill="white"/>
<path d="M56.6426 159.489C57.5829 157.311 59.4726 156.516 61.5504 157.407C63.6282 158.299 64.3561 160.211 63.4158 162.389C62.4755 164.567 60.5767 165.364 58.499 164.473C56.4212 163.582 55.7023 161.679 56.6426 159.489ZM61.6384 161.628C62.1965 160.332 61.9205 159.235 60.9407 158.818C59.961 158.401 58.9752 158.951 58.414 160.247C57.8529 161.543 58.135 162.646 59.1086 163.062C60.0823 163.479 61.0742 162.929 61.6384 161.628Z" fill="white"/>
<path d="M49.4814 151.043L53.7279 153.668L49.7847 159.981L48.1741 158.981L51.3104 153.964L48.6837 152.339L49.4814 151.043Z" fill="white"/>
<path d="M41.51 144.877L45.4532 148.137L40.6759 153.852L36.7327 150.593L37.7124 149.421L40.1875 151.472L41.1369 150.333L38.8104 148.406L39.7022 147.336L42.0317 149.264L43.0024 148.098L40.5272 146.05L41.51 144.877Z" fill="white"/>
<path d="M36.5991 140.026L32.1979 143.998L33.5901 145.527L32.4527 146.551L28.3972 142.092L29.5317 141.068L30.9209 142.597L35.3373 138.624L36.5991 140.026Z" fill="white"/>
<path d="M27.6329 131.308L29.01 133.317L30.6328 132.788L31.7248 134.38L24.1417 136.495L22.8313 134.582L27.5813 128.326L28.7188 129.985L27.6329 131.308ZM27.6754 133.782L26.7138 132.377L24.8059 134.673L24.8302 134.706L27.6754 133.782Z" fill="white"/>
<path d="M25.2335 124.185L18.4815 127.357L17.8355 125.994L20.4107 121.297L20.3925 121.258L16.4644 123.103L15.697 121.481L22.449 118.309L23.089 119.66L20.4744 124.387L20.4926 124.426L24.457 122.563L25.2335 124.185Z" fill="white"/>
<path d="M17.8083 109.661L18.4847 111.999H20.1924L20.7293 113.851L12.8611 113.509L12.218 111.286L18.694 106.824L19.2551 108.755L17.8083 109.661ZM17.0712 112.023L16.601 110.395L14.0653 111.981V112.02L17.0712 112.023Z" fill="white"/>
<path d="M169.861 92.3518C171.202 92.3518 172.288 91.2699 172.288 89.9352C172.288 88.6005 171.202 87.5186 169.861 87.5186C168.521 87.5186 167.435 88.6005 167.435 89.9352C167.435 91.2699 168.521 92.3518 169.861 92.3518Z" fill="white"/>
<path d="M12.7396 92.654C14.0797 92.654 15.1662 91.5721 15.1662 90.2374C15.1662 88.9028 14.0797 87.8208 12.7396 87.8208C11.3994 87.8208 10.313 88.9028 10.313 90.2374C10.313 91.5721 11.3994 92.654 12.7396 92.654Z" fill="white"/>
</svg>
