<svg width="17" height="19" viewBox="0 0 17 19" fill="none" xmlns="http://www.w3.org/2000/svg">
<path d="M13.5 5.99992C13.5 7.49992 13 9.49992 10.6 10.2999C11.3 8.59992 11.4 6.89992 10.9 5.29992C10.2 3.19992 7.9 1.59992 6.3 0.699919C5.9 0.399919 5.2 0.799919 5.3 1.39992C5.3 2.49992 5 4.09992 3.3 5.79992C1.1 7.99992 0 10.2999 0 12.4999C0 15.3999 2 18.9999 6 18.9999C2 14.9999 5 11.4999 5 11.4999C5.8 17.3999 10 18.9999 12 18.9999C13.7 18.9999 17 17.7999 17 12.5999C17 9.49992 15.7 7.09992 14.6 5.69992C14.3 5.19992 13.6 5.49992 13.5 5.99992" fill="#DADADA"/>
</svg>
