<svg width="55" height="50" viewBox="0 0 55 50" fill="none" xmlns="http://www.w3.org/2000/svg">
<path d="M24.5 15.7665L24.5165 15.7483" stroke="#DADADA" stroke-width="3" stroke-linecap="round" stroke-linejoin="round"/>
<path d="M14 14.0165L14.0165 13.9983" stroke="#DADADA" stroke-width="3" stroke-linecap="round" stroke-linejoin="round"/>
<path d="M14 24.5165L14.0165 24.4983" stroke="#DADADA" stroke-width="3" stroke-linecap="round" stroke-linejoin="round"/>
<path d="M10.5 33.2501L3.91299 5.25708C3.87083 5.07811 3.8764 4.89121 3.92915 4.71507C3.9819 4.53893 4.07998 4.37973 4.21358 4.25339C4.34718 4.12706 4.51161 4.03803 4.69042 3.99519C4.86923 3.95236 5.05615 3.95724 5.23249 4.00933L33.25 12.2501" stroke="#DADADA" stroke-width="3"/>
<path d="M38.8465 14.7439C38.9442 14.3537 38.9641 13.9481 38.905 13.5502C38.8459 13.1523 38.709 12.7699 38.5021 12.4249C38.2952 12.0799 38.0224 11.7791 37.6993 11.5395C37.3762 11.2999 37.009 11.1263 36.6188 11.0287C36.2286 10.931 35.8229 10.9112 35.425 10.9702C35.0271 11.0293 34.6448 11.1662 34.2998 11.3731C33.9548 11.58 33.6539 11.8528 33.4143 12.1759C33.1748 12.499 33.0012 12.8662 32.9035 13.2564C32.2193 16.0004 29.5785 20.3439 25.5063 24.4127C21.4813 28.4394 16.4973 31.7522 11.5623 32.8914C11.1655 32.977 10.7897 33.1406 10.4568 33.3727C10.1238 33.6048 9.84029 33.9008 9.62271 34.2434C9.40514 34.586 9.25784 34.9685 9.18938 35.3685C9.12093 35.7686 9.13268 36.1783 9.22395 36.5738C9.31522 36.9692 9.4842 37.3426 9.72106 37.6722C9.95791 38.0018 10.2579 38.2811 10.6036 38.4937C10.9494 38.7063 11.3339 38.8481 11.7349 38.9108C12.1359 38.9735 12.5454 38.9559 12.9395 38.8589C19.3795 37.3732 25.333 33.2484 29.8375 28.7439C34.2983 24.2832 37.7825 18.9999 38.8465 14.7439Z" stroke="#DADADA" stroke-width="3" stroke-linecap="round"/>
<g filter="url(#filter0_d_69_2087)">
<circle cx="39" cy="30" r="12" fill="#DADADA"/>
<path d="M42.1895 30.0547V31.3555C42.1895 32.0547 42.127 32.6445 42.002 33.125C41.877 33.6055 41.6973 33.9922 41.4629 34.2852C41.2285 34.5781 40.9453 34.791 40.6133 34.9238C40.2852 35.0527 39.9141 35.1172 39.5 35.1172C39.1719 35.1172 38.8691 35.0762 38.5918 34.9941C38.3145 34.9121 38.0645 34.7812 37.8418 34.6016C37.623 34.418 37.4355 34.1797 37.2793 33.8867C37.123 33.5938 37.0039 33.2383 36.9219 32.8203C36.8398 32.4023 36.7988 31.9141 36.7988 31.3555V30.0547C36.7988 29.3555 36.8613 28.7695 36.9863 28.2969C37.1152 27.8242 37.2969 27.4453 37.5312 27.1602C37.7656 26.8711 38.0469 26.6641 38.375 26.5391C38.707 26.4141 39.0781 26.3516 39.4883 26.3516C39.8203 26.3516 40.125 26.3926 40.4023 26.4746C40.6836 26.5527 40.9336 26.6797 41.1523 26.8555C41.3711 27.0273 41.5566 27.2578 41.709 27.5469C41.8652 27.832 41.9844 28.1816 42.0664 28.5957C42.1484 29.0098 42.1895 29.4961 42.1895 30.0547ZM41.0996 31.5312V29.873C41.0996 29.4902 41.0762 29.1543 41.0293 28.8652C40.9863 28.5723 40.9219 28.3223 40.8359 28.1152C40.75 27.9082 40.6406 27.7402 40.5078 27.6113C40.3789 27.4824 40.2285 27.3887 40.0566 27.3301C39.8887 27.2676 39.6992 27.2363 39.4883 27.2363C39.2305 27.2363 39.002 27.2852 38.8027 27.3828C38.6035 27.4766 38.4355 27.627 38.2988 27.834C38.166 28.041 38.0645 28.3125 37.9941 28.6484C37.9238 28.9844 37.8887 29.3926 37.8887 29.873V31.5312C37.8887 31.9141 37.9102 32.252 37.9531 32.5449C38 32.8379 38.0684 33.0918 38.1582 33.3066C38.248 33.5176 38.3574 33.6914 38.4863 33.8281C38.6152 33.9648 38.7637 34.0664 38.9316 34.1328C39.1035 34.1953 39.293 34.2266 39.5 34.2266C39.7656 34.2266 39.998 34.1758 40.1973 34.0742C40.3965 33.9727 40.5625 33.8145 40.6953 33.5996C40.832 33.3809 40.9336 33.1016 41 32.7617C41.0664 32.418 41.0996 32.0078 41.0996 31.5312Z" fill="black"/>
</g>
<defs>
<filter id="filter0_d_69_2087" x="23" y="18" width="32" height="32" filterUnits="userSpaceOnUse" color-interpolation-filters="sRGB">
<feFlood flood-opacity="0" result="BackgroundImageFix"/>
<feColorMatrix in="SourceAlpha" type="matrix" values="0 0 0 0 0 0 0 0 0 0 0 0 0 0 0 0 0 0 127 0" result="hardAlpha"/>
<feOffset dy="4"/>
<feGaussianBlur stdDeviation="2"/>
<feComposite in2="hardAlpha" operator="out"/>
<feColorMatrix type="matrix" values="0 0 0 0 0 0 0 0 0 0 0 0 0 0 0 0 0 0 0.25 0"/>
<feBlend mode="normal" in2="BackgroundImageFix" result="effect1_dropShadow_69_2087"/>
<feBlend mode="normal" in="SourceGraphic" in2="effect1_dropShadow_69_2087" result="shape"/>
</filter>
</defs>
</svg>
