<svg width="19" height="20" viewBox="0 0 19 20" fill="none" xmlns="http://www.w3.org/2000/svg">
<path d="M19 1V3C19 4.85652 18.2625 6.63699 16.9497 7.94975C15.637 9.2625 13.8565 10 12 10H11V11H16V18C16 18.5304 15.7893 19.0391 15.4142 19.4142C15.0391 19.7893 14.5304 20 14 20H6C5.46957 20 4.96086 19.7893 4.58579 19.4142C4.21071 19.0391 4 18.5304 4 18V11H9V8C9 6.14349 9.7375 4.36301 11.0503 3.05025C12.363 1.7375 14.1435 1 16 1H19ZM3.5 2.45925e-06C4.69998 -0.00096985 5.88262 0.286386 6.94836 0.837877C8.0141 1.38937 8.93173 2.18885 9.624 3.169C8.56736 4.55758 7.99672 6.25512 8 8V9H7.5C5.51088 9 3.60322 8.20983 2.1967 6.8033C0.790176 5.39678 0 3.48913 0 1.5V2.45925e-06H3.5Z" fill="#8ACB00"/>
</svg>
