<svg width="42" height="42" viewBox="0 0 42 42" fill="none" xmlns="http://www.w3.org/2000/svg">
<path fill-rule="evenodd" clip-rule="evenodd" d="M35.8809 6.10321C33.9394 4.16078 31.6329 2.62154 29.0941 1.57411C26.5553 0.52668 23.8344 -0.008256 21.0881 9.63182e-05C9.56248 9.63182e-05 0.18 9.3357 0.175312 20.8125C0.170213 24.467 1.13353 28.0576 2.96718 31.2188L0 42L11.0859 39.1059C14.1546 40.7683 17.5897 41.6384 21.0797 41.6372H21.0881C32.6128 41.6372 41.9943 32.3006 41.9999 20.8247C42.0069 18.0878 41.4695 15.3767 40.419 12.8494C39.3685 10.322 37.8259 8.02883 35.8809 6.10321V6.10321ZM21.0881 38.1244H21.0806C17.9694 38.1253 14.9148 37.2927 12.2344 35.7131L11.5997 35.3381L5.02124 37.0556L6.77718 30.6722L6.36374 30.016C4.6241 27.2618 3.70241 24.0701 3.70593 20.8125C3.70593 11.2754 11.5069 3.51571 21.0947 3.51571C25.694 3.5075 30.1083 5.32652 33.3666 8.57269C36.6249 11.8189 38.4604 16.2263 38.4693 20.8257C38.4656 30.3638 30.6684 38.1244 21.0881 38.1244V38.1244ZM30.6215 25.1691C30.0993 24.9085 27.5278 23.6504 27.0515 23.4769C26.5753 23.3035 26.2237 23.2163 25.8759 23.7375C25.5281 24.2588 24.5259 25.425 24.2212 25.7766C23.9165 26.1282 23.6118 26.1666 23.0897 25.906C22.5675 25.6453 20.8828 25.0969 18.8868 23.325C17.3334 21.946 16.2853 20.2435 15.9806 19.7232C15.6759 19.2029 15.9478 18.9207 16.2093 18.6619C16.4447 18.4285 16.7315 18.0544 16.9931 17.7507C17.2547 17.4469 17.3418 17.2294 17.5153 16.8826C17.6887 16.5357 17.6025 16.2319 17.4722 15.9722C17.3418 15.7126 16.2965 13.1523 15.8615 12.1107C15.4369 11.0963 15.0065 11.2341 14.6859 11.2182C14.3812 11.2032 14.0297 11.1994 13.6837 11.1994C13.4193 11.2063 13.1591 11.2677 12.9194 11.3796C12.6797 11.4915 12.4656 11.6517 12.2906 11.8501C11.8115 12.3713 10.4615 13.6313 10.4615 16.1888C10.4615 18.7463 12.3365 21.2213 12.5953 21.5682C12.854 21.915 16.2797 27.1678 21.5212 29.4207C22.4945 29.8375 23.489 30.203 24.5006 30.5157C25.7521 30.9113 26.8912 30.856 27.7912 30.7219C28.7953 30.5728 30.885 29.4638 31.319 28.2488C31.7531 27.0338 31.754 25.9932 31.6237 25.7766C31.4934 25.56 31.1446 25.4288 30.6215 25.1691V25.1691Z" fill="#75D4FD"/>
</svg>
